<svg xmlns="http://www.w3.org/2000/svg" viewBox="0 0 1024 1024">
<path d="M 928,956 L 928,957 L 929,956 Z" fill="black"/>
<path d="M 975,937 Z" fill="black"/>
<path d="M 743,936 L 744,937 L 744,936 Z" fill="black"/>
<path d="M 173,919 Z" fill="black"/>
<path d="M 52,885 Z" fill="black"/>
<path d="M 190,866 Z" fill="black"/>
<path d="M 177,831 Z" fill="black"/>
<path d="M 104,831 Z" fill="black"/>
<path d="M 679,785 Z" fill="black"/>
<path d="M 724,764 L 723,765 L 723,766 L 724,766 L 724,765 L 725,764 Z" fill="black"/>
<path d="M 611,759 L 611,760 Z" fill="black"/>
<path d="M 605,759 L 606,759 Z" fill="black"/>
<path d="M 618,757 Z" fill="black"/>
<path d="M 580,748 Z" fill="black"/>
<path d="M 573,745 L 572,746 L 572,747 L 573,747 L 574,746 L 575,746 L 576,747 L 577,747 L 577,746 L 574,746 Z" fill="black"/>
<path d="M 568,743 L 567,744 L 569,744 L 569,743 Z" fill="black"/>
<path d="M 558,740 L 558,742 L 559,741 Z" fill="black"/>
<path d="M 549,739 L 548,740 L 549,740 L 550,741 L 551,741 L 551,740 L 550,740 Z" fill="black"/>
<path d="M 569,735 L 569,737 L 571,737 L 571,736 L 570,736 Z" fill="black"/>
<path d="M 532,734 L 533,735 L 533,734 Z" fill="black"/>
<path d="M 560,733 L 561,733 Z" fill="black"/>
<path d="M 783,731 Z" fill="black"/>
<path d="M 779,731 L 779,732 L 780,732 L 781,731 Z" fill="black"/>
<path d="M 774,731 L 773,732 L 771,732 L 770,733 L 770,734 L 772,734 L 774,732 L 775,733 L 777,733 L 777,731 Z" fill="black"/>
<path d="M 550,730 L 551,730 Z" fill="black"/>
<path d="M 525,730 L 525,731 Z" fill="black"/>
<path d="M 545,728 L 545,729 L 546,728 Z" fill="black"/>
<path d="M 536,725 L 536,727 L 538,727 L 538,726 L 537,725 Z" fill="black"/>
<path d="M 532,724 L 533,724 Z" fill="black"/>
<path d="M 784,722 L 783,723 L 782,723 L 781,724 L 780,723 L 779,723 L 778,724 L 775,724 L 774,725 L 779,725 L 780,724 L 785,724 L 786,723 L 790,723 L 790,722 Z" fill="black"/>
<path d="M 503,722 L 503,723 L 504,724 L 507,724 L 507,723 L 506,723 L 505,722 Z" fill="black"/>
<path d="M 518,718 L 518,720 L 519,721 L 520,721 L 520,719 L 519,718 Z" fill="black"/>
<path d="M 490,717 L 490,719 L 491,719 L 491,718 Z" fill="black"/>
<path d="M 505,715 L 505,717 L 506,718 L 509,718 L 510,719 L 511,719 L 512,718 L 511,717 L 509,717 L 507,715 Z" fill="black"/>
<path d="M 497,711 L 496,712 L 494,712 L 495,713 L 497,713 L 498,714 L 499,714 L 500,713 L 499,712 L 498,712 Z" fill="black"/>
<path d="M 479,709 L 480,710 L 482,710 L 481,709 Z" fill="black"/>
<path d="M 486,708 L 485,709 L 486,709 L 488,711 L 492,711 L 491,710 L 490,710 L 489,709 L 488,709 L 487,708 Z" fill="black"/>
<path d="M 470,707 L 470,708 L 473,708 L 474,709 L 477,709 L 476,708 L 473,708 L 472,707 Z" fill="black"/>
<path d="M 267,706 Z" fill="black"/>
<path d="M 472,703 L 472,704 L 474,704 L 474,703 Z" fill="black"/>
<path d="M 464,701 L 462,703 L 463,703 L 465,701 Z" fill="black"/>
<path d="M 414,694 Z" fill="black"/>
<path d="M 831,693 L 832,693 L 833,694 L 834,693 Z" fill="black"/>
<path d="M 411,688 L 411,689 L 412,689 L 412,688 Z" fill="black"/>
<path d="M 396,688 L 395,689 L 395,690 L 397,690 L 396,689 Z" fill="black"/>
<path d="M 841,687 L 840,688 L 834,688 L 833,689 L 830,689 L 829,690 L 829,691 L 830,691 L 831,690 L 832,690 L 833,689 L 837,689 L 838,688 L 842,688 L 842,687 Z" fill="black"/>
<path d="M 388,687 L 388,688 L 389,689 L 390,688 L 389,687 Z" fill="black"/>
<path d="M 380,686 L 381,686 Z" fill="black"/>
<path d="M 414,685 L 413,686 L 415,686 L 415,685 Z" fill="black"/>
<path d="M 420,684 L 419,685 L 419,686 L 423,686 L 421,684 Z" fill="black"/>
<path d="M 396,683 L 396,684 L 397,685 L 398,684 L 397,683 Z" fill="black"/>
<path d="M 366,682 L 367,683 L 368,683 L 368,682 Z" fill="black"/>
<path d="M 375,681 L 375,682 L 374,683 L 373,683 L 374,683 L 376,681 Z" fill="black"/>
<path d="M 358,680 L 358,681 L 361,681 L 362,682 L 364,682 L 364,681 L 361,681 L 360,680 Z" fill="black"/>
<path d="M 309,678 Z" fill="black"/>
<path d="M 379,677 Z" fill="black"/>
<path d="M 344,677 L 344,678 L 346,678 L 345,677 Z" fill="black"/>
<path d="M 373,676 L 372,677 L 372,678 L 373,679 L 374,679 L 374,677 Z" fill="black"/>
<path d="M 358,676 L 358,677 L 359,677 Z" fill="black"/>
<path d="M 337,676 L 337,677 L 342,677 L 341,676 Z" fill="black"/>
<path d="M 333,676 L 333,677 L 334,677 L 335,676 Z" fill="black"/>
<path d="M 364,675 L 364,676 L 365,677 L 365,678 L 366,679 L 367,679 L 367,678 L 366,678 L 364,676 L 365,675 Z" fill="black"/>
<path d="M 310,675 L 311,676 L 312,676 L 312,675 Z" fill="black"/>
<path d="M 308,675 Z" fill="black"/>
<path d="M 328,674 L 329,675 L 330,675 L 330,674 Z" fill="black"/>
<path d="M 860,672 L 860,673 L 862,673 L 861,672 Z" fill="black"/>
<path d="M 354,671 L 354,672 L 355,672 Z" fill="black"/>
<path d="M 345,670 L 344,671 L 344,672 L 347,672 L 348,671 L 349,671 L 350,672 L 350,673 L 350,672 L 349,671 L 349,670 L 348,670 L 347,671 L 346,670 Z" fill="black"/>
<path d="M 218,670 Z" fill="black"/>
<path d="M 872,669 L 871,670 L 867,670 L 866,671 L 865,671 L 865,672 L 867,672 L 868,671 L 871,671 L 872,670 L 874,670 L 873,669 Z" fill="black"/>
<path d="M 850,669 L 850,670 Z" fill="black"/>
<path d="M 879,668 L 879,669 Z" fill="black"/>
<path d="M 363,668 Z" fill="black"/>
<path d="M 373,667 L 373,668 L 374,668 L 375,669 L 379,669 L 380,670 L 384,670 L 386,672 L 388,672 L 388,670 L 387,669 L 386,670 L 385,669 L 383,669 L 382,670 L 381,669 L 379,669 L 378,668 L 376,668 L 375,667 Z" fill="black"/>
<path d="M 334,667 L 334,668 L 335,669 L 336,669 L 337,668 L 336,667 Z" fill="black"/>
<path d="M 328,666 L 327,667 L 330,667 L 329,666 Z" fill="black"/>
<path d="M 364,665 L 364,666 L 365,667 L 368,667 L 368,665 L 367,666 L 366,666 L 365,665 Z" fill="black"/>
<path d="M 374,664 L 373,665 L 376,665 L 377,666 L 378,666 L 378,665 L 376,665 L 375,664 Z" fill="black"/>
<path d="M 352,664 L 351,665 L 351,666 L 354,666 L 355,667 L 355,665 L 354,665 L 353,664 Z" fill="black"/>
<path d="M 370,663 Z" fill="black"/>
<path d="M 367,663 Z" fill="black"/>
<path d="M 335,663 L 334,664 L 335,664 L 336,663 L 337,664 L 339,664 L 339,663 Z" fill="black"/>
<path d="M 761,662 Z" fill="black"/>
<path d="M 363,662 L 363,663 L 364,663 L 365,662 Z" fill="black"/>
<path d="M 347,662 L 345,664 L 345,665 L 346,666 L 348,666 L 348,663 Z" fill="black"/>
<path d="M 729,659 L 729,660 L 730,661 L 731,661 L 732,660 L 736,660 L 736,659 Z" fill="black"/>
<path d="M 722,658 L 722,660 L 723,661 L 724,661 L 725,660 L 725,659 L 724,658 Z" fill="black"/>
<path d="M 777,656 L 779,656 Z" fill="black"/>
<path d="M 764,656 L 764,657 L 765,657 Z" fill="black"/>
<path d="M 755,656 L 754,657 L 747,657 L 746,658 L 743,658 L 743,659 L 745,659 L 747,661 L 748,661 L 748,660 L 749,659 L 753,659 L 753,658 L 754,657 L 757,657 L 757,656 Z" fill="black"/>
<path d="M 877,655 L 878,655 Z" fill="black"/>
<path d="M 772,655 L 772,656 L 775,656 L 774,655 Z" fill="black"/>
<path d="M 790,654 L 790,655 L 791,655 Z" fill="black"/>
<path d="M 807,653 L 807,654 L 808,653 L 809,653 Z" fill="black"/>
<path d="M 624,653 L 625,654 L 627,654 L 627,653 Z" fill="black"/>
<path d="M 216,639 L 216,641 L 217,640 Z" fill="black"/>
<path d="M 612,626 L 611,627 L 612,628 L 613,627 L 613,626 Z" fill="black"/>
<path d="M 616,621 Z" fill="black"/>
<path d="M 611,619 L 611,620 Z" fill="black"/>
<path d="M 432,616 L 433,617 L 436,617 L 437,618 L 439,618 L 438,617 L 435,617 L 434,616 Z" fill="black"/>
<path d="M 432,612 L 432,613 L 433,613 L 434,614 L 438,614 L 439,615 L 440,615 L 440,614 L 439,614 L 438,613 L 435,613 L 434,612 Z" fill="black"/>
<path d="M 427,611 L 428,612 L 429,612 L 428,611 Z" fill="black"/>
<path d="M 417,608 L 416,609 L 415,609 L 419,609 L 420,610 L 423,610 L 421,608 Z" fill="black"/>
<path d="M 411,607 L 411,608 L 413,608 L 412,607 Z" fill="black"/>
<path d="M 406,605 L 405,606 L 406,607 L 408,607 L 408,606 L 407,605 Z" fill="black"/>
<path d="M 397,604 L 397,605 L 399,605 L 400,606 L 402,606 L 401,606 L 400,605 L 399,605 L 398,604 Z" fill="black"/>
<path d="M 389,601 Z" fill="black"/>
<path d="M 549,596 L 549,597 L 550,597 L 550,596 Z" fill="black"/>
<path d="M 549,589 Z" fill="black"/>
<path d="M 547,574 L 547,579 L 546,580 L 545,579 L 544,579 L 543,578 L 542,578 L 541,579 L 541,583 L 540,584 L 539,584 L 538,583 L 538,591 L 537,592 L 537,596 L 538,597 L 540,595 L 540,592 L 539,591 L 539,587 L 541,585 L 542,585 L 543,586 L 543,588 L 544,588 L 545,587 L 545,585 L 546,584 L 547,585 L 548,585 L 550,583 L 549,582 L 549,576 L 548,575 L 548,574 Z" fill="black"/>
<path d="M 374,573 L 372,575 L 372,576 L 373,576 L 373,574 Z" fill="black"/>
<path d="M 538,571 L 538,573 L 536,575 L 537,575 L 538,574 L 539,574 L 539,571 Z" fill="black"/>
<path d="M 387,571 L 387,572 L 388,571 Z" fill="black"/>
<path d="M 543,570 L 543,571 L 544,571 L 544,570 Z" fill="black"/>
<path d="M 322,566 L 322,567 Z" fill="black"/>
<path d="M 548,565 L 549,566 L 548,567 L 548,568 L 549,569 L 549,566 Z" fill="black"/>
<path d="M 391,564 L 392,564 L 393,565 L 394,565 L 394,564 Z" fill="black"/>
<path d="M 537,563 L 537,566 L 538,566 L 538,563 Z" fill="black"/>
<path d="M 391,557 L 390,558 L 391,558 Z" fill="black"/>
<path d="M 619,555 Z" fill="black"/>
<path d="M 327,555 L 325,557 L 325,560 L 324,561 L 324,562 L 325,562 L 325,559 L 327,557 Z" fill="black"/>
<path d="M 395,546 L 395,547 L 397,547 L 396,546 Z" fill="black"/>
<path d="M 625,542 Z" fill="black"/>
<path d="M 537,541 L 537,543 Z" fill="black"/>
<path d="M 394,540 L 394,542 L 393,543 L 393,544 L 394,544 L 394,543 L 395,542 L 395,540 Z" fill="black"/>
<path d="M 623,531 L 623,532 Z" fill="black"/>
<path d="M 536,528 L 536,531 L 537,531 L 538,530 L 538,529 L 537,528 Z" fill="black"/>
<path d="M 537,525 Z" fill="black"/>
<path d="M 537,516 L 536,517 L 536,520 L 538,520 L 538,518 L 537,517 Z" fill="black"/>
<path d="M 540,510 L 541,510 Z" fill="black"/>
<path d="M 405,510 Z" fill="black"/>
<path d="M 537,497 L 537,498 L 536,499 L 536,500 L 538,500 L 538,498 Z" fill="black"/>
<path d="M 390,492 L 391,493 L 391,492 Z" fill="black"/>
<path d="M 542,488 L 541,489 L 542,489 Z" fill="black"/>
<path d="M 375,481 Z" fill="black"/>
<path d="M 371,479 L 371,480 Z" fill="black"/>
<path d="M 542,477 L 542,478 Z" fill="black"/>
<path d="M 370,475 L 369,476 L 370,477 L 371,477 L 371,476 Z" fill="black"/>
<path d="M 610,473 L 610,474 L 611,475 L 610,474 Z" fill="black"/>
<path d="M 369,468 L 368,469 L 368,470 L 369,470 L 370,471 L 370,468 Z" fill="black"/>
<path d="M 616,450 L 616,453 L 615,454 L 614,454 L 613,453 L 611,453 L 611,454 L 612,455 L 611,456 L 611,457 L 610,458 L 610,459 L 611,460 L 610,461 L 611,462 L 610,463 L 610,469 L 611,470 L 612,470 L 613,471 L 612,472 L 615,472 L 616,471 L 617,471 L 617,469 L 616,468 L 617,467 L 617,464 L 618,463 L 618,462 L 617,461 L 617,456 L 618,455 L 618,454 L 617,453 L 618,452 L 618,450 Z" fill="black"/>
<path d="M 611,450 L 611,451 Z" fill="black"/>
<path d="M 515,447 L 514,448 L 514,449 L 516,451 L 517,451 L 517,450 L 516,449 L 516,447 Z" fill="black"/>
<path d="M 523,445 L 522,446 L 522,447 L 523,447 Z" fill="black"/>
<path d="M 617,442 L 617,444 L 618,444 L 618,442 Z" fill="black"/>
<path d="M 418,438 L 418,439 L 420,441 L 421,441 L 422,442 L 424,442 L 424,441 L 423,441 L 420,438 Z" fill="black"/>
<path d="M 548,435 L 549,435 Z" fill="black"/>
<path d="M 416,428 Z" fill="black"/>
<path d="M 659,423 Z" fill="black"/>
<path d="M 804,419 L 804,421 L 805,420 L 805,419 Z" fill="black"/>
<path d="M 711,419 L 710,420 L 712,420 L 712,419 Z" fill="black"/>
<path d="M 694,417 Z" fill="black"/>
<path d="M 676,417 Z" fill="black"/>
<path d="M 803,416 L 804,417 L 804,416 Z" fill="black"/>
<path d="M 787,411 Z" fill="black"/>
<path d="M 417,402 L 418,402 Z" fill="black"/>
<path d="M 813,396 L 813,397 Z" fill="black"/>
<path d="M 291,385 L 292,385 Z" fill="black"/>
<path d="M 511,378 Z" fill="black"/>
<path d="M 514,377 Z" fill="black"/>
<path d="M 527,376 Z" fill="black"/>
<path d="M 784,363 L 786,365 L 788,365 L 788,364 L 787,363 Z" fill="black"/>
<path d="M 547,363 Z" fill="black"/>
<path d="M 257,358 L 256,359 L 257,359 Z" fill="black"/>
<path d="M 540,350 L 539,351 L 540,352 L 541,351 Z" fill="black"/>
<path d="M 636,346 Z" fill="black"/>
<path d="M 631,346 L 632,347 L 633,347 L 633,346 Z" fill="black"/>
<path d="M 655,344 L 655,345 L 658,345 L 658,344 Z" fill="black"/>
<path d="M 665,343 Z" fill="black"/>
<path d="M 625,341 L 625,343 L 626,343 L 626,341 Z" fill="black"/>
<path d="M 629,338 Z" fill="black"/>
<path d="M 535,313 L 535,315 L 536,315 L 536,313 Z" fill="black"/>
<path d="M 627,307 Z" fill="black"/>
<path d="M 536,306 L 536,308 L 537,307 L 537,306 Z" fill="black"/>
<path d="M 536,293 L 536,299 L 537,298 L 537,297 L 539,295 L 539,294 L 538,293 Z" fill="black"/>
<path d="M 538,284 L 538,288 L 538,287 L 539,286 L 539,284 Z" fill="black"/>
<path d="M 841,269 L 839,271 L 840,271 L 840,270 Z" fill="black"/>
<path d="M 279,253 Z" fill="black"/>
<path d="M 356,239 L 356,240 L 357,241 L 359,241 L 358,240 L 358,239 Z" fill="black"/>
<path d="M 320,234 Z" fill="black"/>
<path d="M 317,233 Z" fill="black"/>
<path d="M 267,227 L 266,228 L 267,229 L 268,229 L 269,230 L 269,234 L 274,239 L 274,240 L 275,240 L 277,242 L 277,246 L 278,247 L 278,249 L 279,250 L 278,251 L 279,250 L 281,252 L 281,254 L 283,256 L 283,257 L 284,257 L 285,258 L 284,259 L 283,259 L 282,260 L 283,261 L 284,261 L 287,264 L 285,266 L 286,265 L 289,268 L 290,268 L 291,267 L 293,269 L 293,271 L 295,273 L 295,275 L 296,274 L 297,274 L 298,275 L 298,276 L 301,279 L 300,280 L 300,282 L 301,282 L 302,283 L 302,285 L 303,285 L 304,284 L 306,286 L 306,287 L 307,288 L 308,288 L 309,289 L 309,291 L 310,292 L 310,296 L 309,297 L 310,298 L 309,299 L 309,300 L 308,301 L 308,302 L 307,303 L 306,302 L 306,301 L 305,302 L 306,303 L 306,304 L 303,307 L 300,307 L 300,309 L 301,309 L 302,310 L 300,312 L 300,313 L 296,317 L 295,317 L 294,318 L 294,319 L 293,320 L 292,319 L 292,321 L 291,322 L 291,323 L 287,327 L 286,327 L 286,328 L 285,329 L 284,329 L 283,330 L 283,332 L 282,333 L 282,334 L 279,337 L 277,337 L 277,338 L 275,340 L 275,341 L 274,342 L 273,341 L 272,342 L 272,343 L 266,349 L 266,350 L 262,354 L 263,353 L 264,353 L 270,347 L 271,347 L 274,344 L 275,344 L 276,343 L 277,343 L 279,341 L 279,340 L 280,339 L 281,339 L 282,338 L 283,338 L 284,337 L 285,337 L 287,335 L 288,335 L 289,334 L 291,334 L 293,332 L 294,333 L 295,333 L 297,331 L 298,331 L 299,330 L 302,330 L 305,327 L 307,327 L 309,325 L 311,325 L 312,324 L 313,324 L 315,322 L 320,322 L 323,319 L 324,319 L 325,320 L 326,320 L 327,319 L 330,319 L 331,318 L 332,318 L 333,319 L 333,320 L 334,321 L 335,321 L 336,322 L 341,322 L 341,319 L 342,318 L 344,318 L 345,319 L 348,319 L 349,320 L 349,321 L 348,322 L 347,322 L 347,323 L 352,323 L 353,324 L 354,323 L 355,323 L 356,324 L 358,324 L 357,323 L 357,322 L 358,321 L 361,321 L 363,323 L 367,323 L 370,326 L 369,327 L 371,327 L 372,326 L 375,326 L 377,328 L 382,328 L 383,327 L 384,328 L 384,329 L 385,330 L 387,330 L 390,327 L 406,327 L 408,325 L 407,324 L 407,323 L 408,322 L 409,322 L 410,323 L 410,324 L 411,325 L 412,324 L 412,323 L 413,322 L 413,321 L 411,319 L 413,317 L 413,315 L 411,313 L 410,313 L 409,312 L 409,308 L 408,307 L 408,306 L 409,305 L 411,307 L 411,308 L 412,309 L 412,311 L 413,312 L 414,312 L 418,316 L 418,314 L 419,313 L 420,313 L 420,312 L 419,311 L 419,309 L 418,308 L 418,307 L 419,306 L 419,305 L 418,306 L 416,304 L 416,303 L 415,302 L 415,298 L 416,297 L 417,298 L 418,297 L 418,296 L 417,295 L 417,294 L 415,292 L 415,290 L 414,290 L 413,289 L 413,288 L 412,287 L 412,285 L 411,285 L 410,284 L 410,283 L 409,282 L 409,280 L 406,277 L 406,276 L 405,275 L 405,273 L 403,271 L 404,270 L 405,270 L 406,271 L 403,268 L 403,267 L 402,267 L 398,263 L 397,263 L 395,261 L 394,261 L 393,260 L 392,260 L 390,258 L 390,257 L 389,257 L 388,256 L 387,256 L 384,253 L 381,253 L 378,250 L 376,250 L 375,249 L 376,248 L 374,248 L 370,244 L 369,245 L 369,246 L 370,247 L 369,248 L 368,248 L 366,246 L 366,245 L 365,244 L 364,244 L 363,245 L 362,245 L 360,243 L 360,244 L 359,245 L 356,245 L 355,244 L 349,244 L 348,243 L 348,242 L 347,242 L 346,243 L 345,243 L 344,242 L 342,242 L 341,241 L 340,242 L 339,241 L 337,241 L 336,242 L 333,242 L 332,241 L 331,241 L 330,242 L 328,242 L 327,241 L 322,241 L 321,240 L 318,240 L 317,239 L 316,239 L 315,238 L 311,238 L 310,237 L 308,237 L 307,238 L 306,238 L 304,236 L 303,237 L 302,237 L 301,236 L 300,237 L 299,236 L 298,236 L 297,235 L 293,235 L 290,232 L 287,232 L 286,231 L 283,231 L 281,229 L 280,230 L 282,232 L 282,233 L 281,234 L 279,232 L 276,232 L 275,231 L 274,231 L 273,230 L 270,230 L 268,228 L 268,227 Z" fill="black"/>
<path d="M 618,181 L 619,181 Z" fill="black"/>
<path d="M 561,157 L 560,158 L 559,158 L 558,159 L 558,161 L 557,162 L 554,162 L 551,159 L 550,159 L 549,160 L 547,160 L 546,161 L 545,161 L 544,162 L 542,162 L 541,163 L 540,163 L 539,164 L 537,164 L 536,165 L 535,165 L 533,167 L 532,167 L 532,168 L 530,170 L 530,172 L 531,173 L 528,176 L 527,176 L 524,179 L 524,181 L 521,184 L 521,186 L 518,189 L 518,190 L 519,191 L 520,191 L 522,193 L 522,195 L 524,197 L 524,198 L 525,199 L 525,200 L 526,201 L 526,202 L 527,202 L 528,203 L 529,203 L 532,206 L 532,207 L 533,208 L 533,211 L 534,212 L 534,219 L 535,220 L 535,225 L 536,226 L 536,231 L 537,232 L 537,233 L 536,234 L 536,236 L 537,237 L 537,242 L 539,244 L 538,245 L 538,247 L 539,248 L 539,252 L 538,253 L 537,253 L 537,254 L 538,254 L 539,255 L 539,256 L 538,257 L 537,257 L 537,261 L 538,262 L 538,264 L 537,265 L 539,267 L 538,268 L 537,268 L 537,269 L 538,269 L 539,270 L 538,271 L 538,276 L 537,277 L 537,279 L 538,280 L 539,280 L 540,279 L 540,278 L 542,276 L 541,275 L 541,273 L 542,272 L 542,271 L 543,270 L 544,271 L 544,282 L 543,283 L 543,287 L 544,287 L 545,288 L 545,291 L 544,292 L 543,292 L 542,293 L 542,294 L 543,295 L 543,297 L 542,298 L 542,301 L 544,301 L 545,302 L 542,305 L 541,304 L 541,305 L 542,306 L 541,307 L 541,309 L 542,310 L 543,310 L 544,311 L 544,316 L 543,317 L 542,316 L 541,316 L 540,317 L 541,318 L 541,321 L 542,321 L 543,322 L 543,323 L 544,324 L 543,325 L 543,329 L 545,331 L 544,332 L 542,332 L 542,335 L 545,338 L 545,339 L 544,340 L 544,343 L 545,344 L 543,346 L 543,348 L 544,348 L 545,349 L 545,350 L 544,351 L 543,350 L 543,354 L 544,355 L 545,355 L 546,356 L 546,357 L 547,358 L 547,359 L 548,360 L 548,361 L 549,362 L 549,364 L 548,365 L 546,365 L 546,366 L 545,367 L 540,367 L 538,369 L 535,369 L 534,368 L 533,369 L 532,369 L 531,370 L 523,370 L 523,371 L 522,372 L 519,372 L 518,373 L 517,373 L 516,374 L 511,374 L 510,375 L 505,375 L 503,377 L 499,377 L 498,378 L 496,378 L 495,379 L 493,379 L 492,380 L 490,380 L 489,381 L 489,382 L 490,382 L 492,380 L 497,380 L 498,379 L 499,379 L 500,378 L 503,378 L 504,377 L 507,377 L 508,376 L 512,376 L 513,375 L 519,375 L 520,374 L 521,374 L 522,375 L 521,376 L 521,377 L 522,376 L 523,376 L 525,374 L 536,374 L 537,375 L 536,374 L 537,373 L 541,373 L 542,372 L 543,372 L 544,371 L 545,371 L 546,372 L 546,373 L 545,374 L 544,374 L 543,375 L 542,375 L 540,377 L 538,377 L 537,378 L 535,378 L 534,379 L 533,378 L 531,378 L 529,380 L 525,380 L 524,381 L 523,381 L 522,382 L 516,382 L 515,383 L 514,383 L 513,384 L 512,384 L 511,385 L 509,385 L 508,386 L 505,386 L 504,387 L 502,387 L 501,388 L 499,388 L 498,387 L 498,386 L 499,385 L 498,386 L 495,386 L 494,387 L 491,387 L 490,388 L 488,388 L 487,389 L 484,389 L 483,388 L 485,386 L 487,386 L 488,385 L 491,385 L 492,384 L 495,384 L 496,383 L 502,383 L 502,382 L 503,381 L 503,380 L 502,381 L 500,381 L 499,382 L 497,382 L 496,383 L 492,383 L 491,384 L 489,384 L 488,385 L 485,385 L 484,384 L 484,383 L 483,383 L 483,384 L 480,387 L 479,387 L 478,388 L 474,388 L 473,389 L 471,387 L 470,387 L 468,389 L 465,389 L 464,390 L 459,390 L 458,391 L 452,391 L 450,393 L 444,393 L 444,394 L 445,394 L 446,395 L 445,396 L 443,396 L 442,397 L 440,397 L 438,399 L 435,399 L 434,400 L 433,400 L 432,401 L 429,401 L 428,402 L 427,402 L 426,403 L 422,403 L 422,404 L 423,404 L 424,405 L 425,405 L 426,406 L 426,407 L 427,408 L 426,409 L 426,410 L 429,413 L 428,414 L 427,414 L 424,417 L 423,416 L 422,417 L 421,417 L 420,418 L 419,417 L 418,417 L 418,419 L 417,420 L 419,422 L 419,424 L 420,424 L 421,423 L 422,423 L 423,424 L 423,425 L 420,428 L 419,428 L 417,430 L 416,430 L 415,431 L 415,432 L 417,432 L 419,434 L 420,434 L 425,439 L 427,439 L 428,440 L 428,442 L 429,443 L 430,443 L 431,444 L 432,444 L 434,446 L 433,447 L 431,447 L 431,451 L 432,452 L 433,452 L 434,453 L 435,453 L 437,455 L 438,455 L 439,456 L 439,457 L 438,458 L 440,458 L 441,459 L 441,460 L 443,460 L 446,463 L 449,463 L 450,464 L 450,465 L 451,465 L 452,466 L 453,466 L 455,468 L 454,469 L 454,471 L 456,471 L 457,472 L 462,472 L 463,473 L 465,473 L 464,472 L 465,471 L 466,471 L 467,470 L 468,470 L 471,467 L 472,468 L 472,469 L 473,470 L 474,469 L 477,469 L 478,468 L 480,468 L 478,468 L 476,466 L 476,465 L 477,464 L 477,463 L 478,462 L 479,462 L 480,461 L 482,461 L 484,463 L 486,463 L 487,462 L 487,461 L 488,460 L 488,459 L 489,458 L 491,458 L 493,460 L 497,460 L 494,460 L 492,458 L 494,456 L 496,456 L 497,457 L 498,456 L 497,455 L 498,454 L 501,454 L 502,453 L 503,453 L 504,452 L 505,453 L 506,452 L 508,452 L 508,450 L 509,449 L 510,450 L 510,451 L 511,451 L 511,450 L 510,449 L 514,445 L 517,445 L 518,444 L 519,444 L 520,443 L 522,443 L 523,442 L 525,442 L 526,441 L 527,441 L 528,440 L 533,440 L 534,439 L 536,439 L 536,437 L 535,437 L 534,438 L 532,438 L 531,437 L 533,435 L 535,435 L 536,434 L 540,434 L 541,435 L 541,437 L 542,437 L 542,435 L 543,434 L 544,434 L 545,435 L 544,436 L 544,437 L 545,438 L 546,438 L 546,434 L 547,433 L 551,433 L 552,434 L 551,435 L 551,438 L 552,439 L 552,440 L 551,441 L 551,442 L 550,443 L 548,441 L 547,441 L 546,442 L 544,442 L 544,444 L 543,445 L 543,446 L 544,447 L 544,450 L 542,452 L 542,454 L 543,455 L 543,460 L 545,460 L 546,461 L 546,462 L 547,463 L 545,465 L 545,467 L 544,468 L 543,468 L 543,469 L 544,469 L 545,468 L 546,468 L 547,469 L 547,470 L 547,469 L 546,468 L 546,464 L 547,463 L 547,462 L 548,461 L 547,460 L 548,459 L 548,456 L 549,455 L 550,456 L 550,462 L 549,463 L 549,467 L 550,468 L 550,470 L 549,471 L 550,472 L 549,473 L 549,475 L 548,476 L 546,474 L 546,473 L 544,473 L 544,478 L 545,479 L 545,482 L 543,484 L 543,485 L 544,485 L 544,484 L 545,483 L 545,482 L 547,480 L 548,480 L 550,482 L 550,487 L 549,488 L 549,491 L 546,494 L 546,495 L 549,495 L 550,496 L 550,500 L 549,501 L 549,504 L 548,505 L 549,504 L 550,504 L 551,505 L 549,507 L 546,507 L 545,506 L 544,506 L 544,507 L 546,507 L 547,508 L 547,510 L 548,511 L 548,513 L 547,514 L 547,515 L 548,516 L 548,517 L 547,518 L 547,519 L 546,520 L 545,519 L 544,519 L 543,518 L 543,517 L 542,517 L 541,516 L 541,519 L 542,519 L 543,518 L 544,519 L 544,520 L 542,522 L 542,525 L 543,525 L 544,526 L 543,527 L 543,528 L 542,529 L 542,533 L 544,531 L 545,531 L 546,530 L 547,530 L 547,528 L 548,527 L 549,528 L 549,531 L 550,532 L 549,533 L 548,533 L 548,535 L 547,536 L 546,536 L 545,535 L 546,536 L 546,537 L 542,541 L 541,540 L 541,539 L 542,538 L 542,537 L 541,537 L 540,538 L 540,541 L 541,542 L 541,543 L 540,544 L 540,545 L 541,546 L 541,548 L 540,549 L 540,550 L 541,550 L 542,549 L 543,550 L 542,549 L 542,548 L 543,547 L 545,549 L 545,551 L 544,552 L 543,552 L 542,553 L 542,559 L 543,560 L 545,560 L 548,563 L 550,563 L 551,564 L 551,565 L 552,565 L 553,566 L 553,567 L 554,568 L 552,570 L 552,575 L 551,576 L 552,576 L 553,577 L 553,580 L 552,581 L 552,583 L 554,585 L 553,586 L 554,587 L 554,588 L 555,587 L 556,587 L 557,588 L 557,590 L 556,591 L 555,591 L 554,592 L 554,594 L 555,595 L 554,596 L 554,597 L 553,598 L 552,598 L 552,599 L 551,600 L 550,600 L 549,599 L 547,599 L 546,598 L 545,598 L 543,600 L 543,604 L 542,605 L 541,604 L 541,601 L 540,601 L 539,602 L 539,611 L 540,612 L 540,620 L 539,621 L 539,623 L 540,624 L 542,624 L 542,623 L 543,622 L 543,621 L 544,620 L 546,622 L 546,623 L 547,623 L 547,619 L 548,618 L 549,619 L 549,618 L 550,617 L 551,617 L 552,616 L 553,616 L 552,616 L 550,614 L 550,611 L 549,612 L 548,611 L 548,610 L 547,609 L 548,608 L 550,608 L 550,606 L 551,605 L 551,604 L 552,603 L 552,601 L 553,600 L 554,601 L 556,601 L 557,600 L 557,599 L 556,598 L 556,597 L 555,596 L 555,593 L 556,592 L 556,591 L 557,590 L 558,590 L 559,591 L 559,603 L 560,604 L 560,607 L 559,608 L 559,611 L 560,612 L 560,619 L 561,620 L 561,621 L 560,622 L 561,623 L 561,627 L 562,628 L 561,629 L 560,629 L 559,630 L 559,631 L 560,632 L 560,634 L 561,635 L 561,636 L 562,637 L 562,639 L 561,640 L 558,640 L 557,639 L 552,639 L 551,638 L 547,638 L 546,637 L 546,636 L 547,635 L 547,633 L 548,632 L 553,632 L 553,631 L 552,631 L 551,632 L 550,631 L 548,631 L 547,630 L 545,630 L 544,631 L 544,632 L 543,633 L 542,632 L 542,630 L 543,629 L 543,627 L 542,626 L 541,626 L 541,627 L 540,628 L 541,629 L 541,630 L 542,631 L 541,632 L 541,633 L 540,634 L 540,635 L 539,636 L 534,636 L 533,635 L 530,635 L 529,634 L 528,634 L 527,633 L 526,634 L 525,634 L 523,632 L 522,632 L 522,633 L 521,634 L 520,634 L 519,633 L 518,633 L 517,632 L 518,633 L 517,634 L 516,634 L 515,633 L 515,631 L 512,631 L 511,630 L 503,630 L 501,628 L 499,628 L 498,629 L 496,629 L 495,628 L 494,629 L 492,629 L 491,628 L 488,628 L 487,627 L 486,627 L 485,626 L 482,626 L 481,625 L 479,625 L 477,623 L 476,623 L 475,622 L 474,623 L 473,622 L 472,622 L 471,623 L 470,623 L 467,620 L 467,619 L 466,619 L 465,620 L 461,620 L 459,618 L 458,618 L 457,617 L 456,617 L 455,618 L 454,618 L 453,617 L 449,617 L 448,616 L 444,616 L 447,616 L 449,618 L 450,618 L 451,619 L 453,619 L 454,620 L 455,620 L 456,621 L 460,621 L 462,623 L 463,623 L 464,622 L 465,623 L 466,623 L 467,624 L 467,625 L 466,626 L 464,626 L 463,625 L 462,626 L 457,626 L 456,625 L 455,625 L 454,624 L 453,624 L 452,623 L 449,623 L 449,624 L 448,625 L 447,624 L 447,622 L 446,621 L 445,621 L 444,620 L 443,620 L 442,621 L 439,621 L 438,620 L 435,620 L 434,619 L 432,619 L 431,618 L 428,618 L 427,617 L 425,617 L 424,616 L 425,615 L 425,614 L 424,613 L 422,613 L 421,612 L 419,612 L 419,613 L 420,614 L 419,615 L 417,615 L 416,614 L 414,614 L 413,613 L 415,611 L 414,611 L 412,613 L 410,613 L 409,612 L 409,611 L 408,610 L 407,610 L 406,611 L 407,612 L 408,612 L 409,613 L 408,614 L 406,614 L 405,613 L 403,613 L 402,612 L 402,611 L 403,610 L 404,610 L 403,609 L 400,609 L 399,608 L 396,608 L 395,607 L 394,608 L 392,606 L 392,604 L 390,604 L 390,605 L 389,606 L 388,605 L 383,605 L 382,604 L 381,604 L 380,603 L 379,603 L 379,604 L 380,604 L 381,605 L 380,606 L 376,606 L 375,605 L 375,606 L 374,607 L 371,604 L 365,604 L 364,603 L 365,602 L 363,602 L 363,603 L 362,604 L 361,603 L 355,603 L 354,602 L 355,601 L 354,600 L 352,600 L 351,601 L 349,601 L 348,600 L 348,599 L 351,596 L 351,594 L 352,593 L 353,593 L 355,591 L 355,589 L 357,587 L 358,587 L 356,587 L 355,586 L 358,583 L 358,582 L 360,580 L 360,579 L 361,578 L 361,576 L 364,573 L 364,572 L 367,569 L 367,568 L 368,567 L 369,567 L 370,568 L 370,570 L 369,571 L 369,572 L 370,572 L 371,571 L 371,569 L 373,567 L 373,566 L 376,563 L 378,563 L 379,564 L 379,565 L 378,566 L 377,565 L 378,566 L 375,569 L 375,570 L 377,570 L 377,567 L 378,566 L 381,566 L 382,565 L 384,565 L 384,564 L 383,563 L 383,562 L 384,561 L 385,562 L 384,561 L 384,558 L 385,557 L 386,557 L 387,558 L 388,558 L 387,557 L 387,556 L 388,555 L 389,555 L 389,554 L 388,553 L 388,552 L 387,552 L 386,551 L 386,548 L 385,547 L 386,546 L 387,546 L 387,543 L 388,542 L 390,542 L 390,540 L 389,539 L 389,538 L 390,537 L 390,533 L 391,532 L 392,533 L 392,534 L 394,534 L 395,533 L 395,530 L 396,529 L 397,529 L 397,528 L 398,527 L 399,528 L 399,529 L 400,530 L 400,533 L 401,533 L 401,532 L 402,531 L 402,527 L 403,526 L 403,520 L 404,519 L 404,518 L 403,517 L 403,515 L 401,513 L 401,512 L 400,513 L 397,510 L 397,509 L 398,508 L 399,509 L 400,509 L 401,508 L 401,507 L 399,507 L 397,505 L 397,504 L 395,504 L 394,503 L 394,502 L 393,501 L 391,501 L 391,502 L 390,503 L 388,503 L 386,501 L 384,501 L 383,500 L 383,499 L 384,498 L 386,498 L 386,496 L 385,495 L 384,495 L 383,494 L 382,494 L 381,493 L 380,494 L 377,494 L 376,493 L 376,491 L 374,491 L 372,489 L 364,489 L 362,487 L 360,487 L 359,486 L 360,485 L 361,485 L 361,482 L 363,480 L 363,478 L 365,476 L 365,475 L 366,474 L 366,472 L 365,472 L 364,473 L 364,474 L 363,475 L 363,476 L 362,477 L 361,476 L 361,474 L 362,473 L 362,470 L 363,469 L 363,466 L 365,464 L 365,463 L 367,461 L 367,460 L 366,461 L 365,460 L 365,459 L 369,455 L 368,454 L 369,453 L 369,451 L 370,450 L 371,450 L 371,444 L 377,438 L 378,438 L 379,439 L 381,437 L 382,437 L 383,436 L 384,436 L 385,435 L 387,435 L 388,434 L 389,434 L 391,432 L 392,432 L 393,431 L 394,431 L 395,430 L 396,430 L 398,428 L 400,428 L 402,426 L 401,425 L 403,423 L 403,421 L 405,419 L 405,418 L 406,417 L 407,417 L 408,416 L 408,414 L 410,412 L 410,411 L 411,410 L 411,409 L 410,409 L 409,408 L 409,405 L 410,404 L 412,404 L 409,401 L 409,399 L 410,398 L 411,398 L 410,397 L 410,395 L 409,394 L 410,393 L 411,393 L 412,394 L 413,393 L 412,392 L 412,390 L 413,389 L 410,389 L 408,387 L 407,387 L 405,385 L 405,383 L 402,383 L 401,384 L 399,382 L 399,381 L 398,381 L 397,382 L 394,379 L 395,378 L 397,378 L 395,376 L 393,376 L 392,375 L 394,373 L 393,372 L 391,372 L 388,369 L 386,369 L 385,368 L 383,370 L 382,369 L 382,368 L 381,367 L 378,367 L 377,366 L 377,365 L 378,364 L 378,363 L 376,363 L 374,361 L 369,361 L 367,363 L 366,362 L 364,362 L 363,361 L 362,361 L 360,359 L 361,358 L 359,358 L 358,357 L 356,357 L 355,358 L 351,358 L 350,359 L 347,359 L 346,360 L 345,360 L 344,361 L 343,361 L 342,362 L 338,362 L 337,363 L 337,364 L 338,364 L 339,365 L 339,366 L 338,367 L 337,367 L 334,370 L 333,370 L 332,371 L 330,371 L 329,372 L 328,372 L 327,373 L 326,373 L 325,374 L 324,374 L 323,375 L 322,375 L 321,374 L 323,372 L 324,372 L 325,371 L 324,371 L 323,370 L 322,370 L 320,372 L 319,372 L 318,373 L 317,373 L 316,374 L 315,374 L 315,375 L 313,377 L 312,377 L 311,378 L 310,378 L 309,379 L 308,379 L 307,378 L 304,378 L 300,382 L 298,382 L 297,383 L 297,384 L 298,385 L 296,387 L 294,387 L 292,389 L 291,389 L 290,390 L 288,390 L 287,389 L 287,387 L 285,389 L 284,389 L 283,390 L 281,390 L 280,391 L 279,391 L 277,393 L 276,393 L 273,396 L 272,396 L 270,398 L 269,397 L 269,396 L 267,396 L 267,397 L 265,399 L 263,399 L 263,400 L 261,402 L 259,402 L 258,403 L 257,403 L 256,404 L 252,404 L 251,403 L 250,403 L 248,405 L 247,405 L 244,408 L 239,408 L 239,411 L 238,412 L 236,412 L 234,414 L 233,414 L 230,417 L 226,417 L 224,415 L 221,415 L 221,417 L 220,418 L 218,418 L 217,417 L 212,417 L 212,418 L 211,419 L 210,418 L 208,418 L 207,417 L 207,416 L 206,416 L 205,415 L 205,414 L 204,413 L 208,409 L 208,408 L 207,408 L 205,410 L 205,411 L 201,415 L 201,416 L 200,417 L 199,417 L 198,416 L 197,417 L 197,419 L 195,421 L 195,422 L 196,423 L 196,431 L 197,432 L 197,434 L 198,435 L 198,436 L 199,437 L 199,440 L 201,442 L 201,445 L 202,445 L 203,446 L 202,447 L 201,447 L 201,448 L 202,448 L 203,449 L 203,450 L 206,453 L 206,454 L 207,455 L 208,455 L 209,456 L 210,456 L 211,457 L 211,459 L 211,458 L 212,457 L 214,459 L 214,460 L 215,461 L 216,461 L 217,462 L 218,462 L 221,465 L 221,467 L 222,468 L 222,469 L 226,473 L 229,473 L 233,477 L 233,478 L 232,479 L 233,478 L 234,478 L 235,479 L 235,481 L 236,482 L 236,483 L 237,483 L 238,484 L 239,484 L 242,487 L 243,487 L 243,486 L 244,485 L 246,485 L 247,486 L 248,486 L 249,487 L 249,488 L 251,488 L 252,487 L 254,487 L 255,488 L 256,488 L 257,489 L 257,490 L 258,491 L 260,491 L 260,490 L 258,488 L 258,487 L 259,486 L 262,486 L 263,487 L 263,488 L 265,488 L 267,486 L 268,486 L 271,483 L 272,483 L 273,484 L 275,484 L 277,482 L 281,482 L 281,481 L 280,481 L 279,480 L 281,478 L 283,478 L 285,476 L 286,476 L 286,475 L 285,474 L 286,473 L 290,473 L 291,474 L 291,476 L 292,476 L 293,475 L 293,474 L 294,473 L 295,473 L 295,472 L 296,471 L 297,471 L 298,470 L 299,470 L 300,471 L 299,470 L 301,468 L 302,469 L 302,474 L 304,472 L 305,472 L 306,471 L 307,471 L 308,470 L 308,468 L 307,469 L 306,468 L 306,467 L 308,465 L 309,465 L 313,461 L 315,463 L 315,464 L 316,465 L 317,465 L 318,464 L 319,464 L 321,462 L 322,463 L 322,465 L 321,466 L 321,467 L 322,468 L 322,473 L 321,474 L 321,476 L 320,477 L 319,476 L 319,474 L 318,475 L 318,476 L 317,477 L 318,478 L 318,480 L 319,480 L 320,481 L 320,482 L 319,483 L 318,483 L 318,485 L 317,486 L 317,487 L 316,488 L 316,491 L 315,492 L 315,494 L 316,495 L 315,496 L 313,496 L 312,497 L 312,506 L 311,507 L 311,508 L 310,509 L 310,512 L 309,513 L 309,514 L 307,516 L 307,518 L 306,519 L 306,520 L 309,523 L 309,527 L 314,532 L 314,533 L 315,534 L 315,536 L 319,540 L 319,541 L 320,542 L 320,543 L 322,545 L 322,546 L 323,547 L 325,547 L 328,550 L 328,551 L 327,552 L 327,553 L 328,553 L 329,552 L 330,553 L 330,554 L 331,555 L 331,558 L 330,559 L 329,559 L 329,562 L 327,564 L 327,566 L 326,567 L 326,568 L 325,569 L 325,572 L 323,574 L 322,574 L 322,578 L 321,579 L 321,581 L 320,582 L 321,583 L 321,585 L 320,586 L 320,587 L 319,588 L 319,589 L 316,592 L 315,592 L 314,593 L 314,594 L 313,595 L 313,598 L 312,599 L 310,599 L 311,600 L 311,601 L 310,602 L 310,603 L 307,606 L 303,606 L 302,607 L 300,607 L 296,611 L 295,611 L 294,610 L 292,610 L 290,612 L 288,612 L 288,613 L 286,615 L 285,614 L 282,614 L 281,615 L 281,616 L 280,617 L 279,617 L 278,618 L 276,618 L 275,617 L 274,618 L 273,617 L 272,617 L 273,618 L 272,619 L 271,619 L 268,622 L 267,622 L 266,621 L 267,620 L 266,619 L 265,620 L 264,620 L 262,622 L 261,622 L 260,623 L 259,623 L 258,624 L 255,624 L 254,623 L 254,621 L 253,620 L 251,620 L 249,622 L 248,621 L 247,621 L 247,622 L 246,623 L 244,623 L 243,622 L 244,621 L 245,621 L 244,620 L 243,620 L 242,619 L 241,620 L 240,620 L 239,621 L 237,619 L 237,621 L 236,622 L 235,622 L 231,626 L 230,626 L 230,627 L 229,628 L 229,629 L 228,630 L 227,629 L 226,630 L 225,630 L 224,631 L 223,630 L 222,631 L 224,631 L 226,633 L 224,635 L 223,635 L 223,637 L 222,638 L 221,638 L 220,639 L 220,640 L 221,641 L 220,642 L 221,643 L 221,644 L 220,645 L 219,644 L 218,645 L 217,644 L 215,644 L 214,645 L 214,646 L 215,647 L 215,648 L 216,649 L 216,651 L 217,652 L 216,653 L 216,656 L 218,656 L 219,657 L 218,658 L 218,659 L 217,660 L 217,661 L 218,662 L 218,663 L 219,664 L 218,665 L 219,664 L 222,667 L 222,668 L 227,673 L 228,672 L 229,672 L 230,673 L 230,674 L 232,676 L 232,679 L 233,680 L 234,680 L 235,681 L 235,682 L 237,684 L 240,684 L 241,685 L 241,686 L 240,687 L 236,687 L 235,688 L 239,692 L 239,693 L 241,693 L 243,695 L 244,695 L 244,693 L 243,692 L 244,691 L 245,691 L 246,692 L 248,692 L 249,693 L 249,694 L 248,695 L 248,696 L 250,696 L 251,697 L 252,697 L 254,699 L 256,699 L 257,698 L 258,699 L 258,701 L 257,702 L 256,702 L 256,703 L 257,703 L 258,704 L 259,704 L 259,703 L 260,702 L 263,702 L 264,703 L 265,702 L 267,702 L 268,701 L 269,701 L 270,702 L 271,702 L 272,701 L 273,701 L 274,700 L 274,699 L 273,698 L 274,697 L 275,697 L 276,696 L 277,696 L 277,695 L 279,693 L 281,693 L 282,692 L 283,692 L 284,693 L 283,694 L 285,694 L 287,692 L 289,692 L 288,691 L 288,690 L 289,689 L 290,689 L 290,687 L 292,685 L 296,685 L 296,684 L 298,682 L 298,681 L 299,680 L 300,680 L 301,679 L 303,679 L 302,678 L 303,677 L 305,677 L 306,676 L 307,677 L 306,676 L 306,674 L 307,673 L 317,673 L 318,674 L 323,674 L 323,673 L 316,673 L 315,672 L 315,671 L 313,671 L 312,670 L 312,669 L 314,667 L 315,667 L 316,666 L 317,666 L 318,665 L 320,665 L 320,663 L 321,662 L 322,662 L 323,661 L 324,662 L 325,662 L 327,660 L 329,662 L 330,662 L 330,660 L 328,660 L 327,659 L 327,658 L 324,658 L 323,657 L 322,657 L 321,656 L 322,655 L 326,655 L 327,656 L 329,656 L 330,655 L 331,656 L 333,656 L 335,658 L 334,659 L 335,658 L 336,658 L 337,657 L 341,657 L 342,658 L 343,658 L 344,657 L 345,658 L 346,658 L 347,657 L 348,657 L 350,659 L 352,657 L 354,659 L 358,659 L 359,660 L 360,660 L 361,661 L 363,659 L 365,659 L 366,660 L 369,660 L 370,661 L 372,661 L 373,662 L 376,662 L 377,663 L 386,663 L 387,664 L 385,666 L 384,666 L 384,667 L 388,667 L 388,666 L 387,665 L 388,664 L 389,664 L 390,665 L 391,665 L 392,664 L 393,665 L 394,665 L 395,666 L 396,666 L 397,667 L 400,667 L 401,668 L 403,668 L 404,669 L 402,671 L 401,670 L 399,670 L 398,669 L 396,669 L 396,670 L 395,671 L 391,671 L 391,672 L 392,672 L 393,673 L 395,673 L 396,674 L 399,674 L 400,675 L 402,675 L 403,676 L 404,676 L 405,677 L 405,678 L 412,678 L 413,679 L 414,679 L 415,680 L 418,680 L 419,681 L 422,681 L 423,682 L 423,683 L 427,683 L 429,685 L 431,685 L 432,684 L 435,687 L 435,689 L 438,689 L 439,688 L 436,688 L 435,687 L 435,686 L 437,684 L 438,685 L 439,685 L 439,683 L 437,683 L 436,682 L 436,681 L 435,681 L 434,680 L 430,680 L 429,679 L 428,679 L 427,678 L 426,678 L 424,676 L 425,675 L 427,675 L 428,676 L 431,676 L 432,677 L 434,677 L 433,676 L 432,676 L 430,674 L 431,673 L 433,673 L 434,674 L 435,674 L 436,675 L 441,675 L 442,676 L 441,677 L 439,677 L 438,678 L 438,679 L 439,679 L 440,680 L 442,680 L 443,681 L 445,681 L 446,682 L 447,682 L 448,683 L 447,684 L 448,683 L 449,683 L 450,684 L 450,685 L 449,686 L 446,686 L 445,685 L 443,685 L 442,686 L 442,688 L 444,690 L 444,691 L 445,692 L 446,692 L 447,691 L 449,691 L 450,692 L 450,694 L 453,694 L 453,693 L 454,692 L 455,693 L 458,693 L 459,694 L 460,694 L 461,695 L 460,696 L 461,697 L 462,697 L 463,698 L 465,698 L 467,700 L 467,702 L 470,702 L 471,701 L 472,701 L 473,700 L 474,700 L 475,701 L 477,701 L 479,703 L 481,703 L 483,705 L 487,705 L 488,706 L 490,706 L 491,707 L 492,707 L 493,708 L 497,708 L 498,707 L 500,709 L 502,709 L 503,710 L 506,710 L 507,711 L 508,711 L 509,712 L 509,713 L 514,713 L 515,714 L 516,714 L 517,715 L 520,715 L 522,717 L 523,717 L 523,715 L 524,714 L 525,714 L 525,713 L 524,713 L 523,712 L 522,712 L 521,711 L 522,710 L 525,710 L 526,711 L 528,711 L 529,712 L 530,712 L 531,713 L 534,713 L 535,714 L 537,714 L 538,715 L 539,715 L 540,716 L 541,716 L 542,717 L 541,718 L 538,718 L 537,717 L 536,717 L 535,716 L 533,716 L 532,715 L 532,717 L 531,718 L 528,718 L 528,719 L 529,720 L 528,721 L 522,721 L 522,722 L 523,722 L 524,721 L 526,723 L 528,723 L 528,721 L 529,720 L 530,720 L 531,719 L 532,719 L 533,718 L 536,718 L 537,719 L 536,720 L 537,721 L 539,721 L 539,720 L 540,719 L 541,719 L 542,720 L 542,721 L 541,722 L 542,723 L 543,723 L 544,724 L 545,724 L 546,725 L 550,725 L 551,726 L 552,725 L 554,727 L 555,727 L 556,728 L 559,728 L 560,729 L 563,729 L 566,732 L 570,732 L 573,735 L 573,739 L 572,740 L 570,740 L 569,739 L 567,739 L 566,738 L 565,738 L 564,737 L 565,736 L 565,734 L 563,734 L 565,736 L 564,737 L 561,737 L 560,736 L 558,736 L 557,735 L 555,735 L 555,736 L 557,736 L 558,737 L 560,737 L 561,738 L 562,738 L 563,739 L 565,739 L 566,740 L 567,740 L 568,741 L 570,741 L 571,742 L 574,742 L 575,743 L 576,743 L 577,744 L 580,744 L 581,745 L 581,746 L 588,746 L 591,749 L 591,750 L 590,751 L 590,752 L 592,752 L 593,751 L 596,751 L 597,750 L 598,751 L 599,751 L 600,752 L 600,753 L 603,753 L 604,754 L 607,754 L 608,755 L 610,755 L 612,757 L 615,757 L 615,755 L 613,755 L 612,754 L 613,753 L 616,753 L 617,754 L 618,754 L 620,756 L 620,759 L 621,760 L 622,760 L 623,761 L 622,762 L 619,762 L 618,761 L 617,762 L 618,763 L 621,763 L 622,764 L 625,764 L 627,766 L 626,767 L 624,767 L 623,766 L 622,767 L 623,767 L 624,768 L 627,768 L 626,767 L 627,766 L 633,766 L 634,767 L 637,767 L 638,768 L 637,769 L 630,769 L 629,768 L 629,769 L 631,769 L 632,770 L 633,770 L 634,771 L 635,771 L 636,772 L 640,772 L 641,773 L 640,772 L 641,771 L 643,771 L 644,772 L 643,773 L 646,773 L 647,774 L 648,773 L 652,773 L 655,776 L 660,776 L 662,778 L 662,779 L 663,779 L 664,778 L 665,779 L 668,779 L 669,780 L 670,780 L 671,781 L 677,781 L 678,782 L 679,782 L 680,783 L 681,783 L 682,784 L 685,784 L 685,783 L 683,781 L 684,780 L 687,780 L 688,779 L 690,779 L 690,778 L 689,778 L 688,779 L 687,778 L 687,777 L 688,776 L 691,776 L 692,775 L 695,775 L 695,774 L 694,773 L 696,771 L 697,772 L 698,772 L 699,771 L 704,771 L 705,772 L 706,772 L 707,771 L 708,771 L 709,770 L 711,770 L 712,769 L 713,769 L 713,767 L 712,766 L 713,765 L 716,765 L 716,764 L 718,762 L 719,762 L 720,763 L 721,763 L 722,762 L 723,762 L 725,760 L 726,760 L 727,759 L 728,759 L 729,758 L 732,758 L 733,757 L 731,757 L 730,756 L 730,755 L 731,754 L 739,754 L 739,753 L 727,753 L 726,754 L 725,754 L 724,753 L 725,752 L 724,753 L 723,752 L 723,751 L 724,750 L 728,750 L 729,749 L 732,749 L 733,748 L 734,748 L 735,749 L 736,749 L 737,748 L 741,748 L 742,747 L 742,746 L 743,745 L 744,746 L 744,747 L 744,746 L 746,744 L 753,744 L 753,743 L 746,743 L 745,744 L 744,744 L 743,743 L 742,743 L 740,745 L 739,745 L 738,744 L 738,743 L 739,742 L 732,742 L 731,743 L 729,741 L 731,739 L 733,739 L 734,738 L 737,738 L 738,737 L 739,737 L 740,738 L 743,738 L 744,737 L 746,737 L 747,736 L 748,736 L 749,737 L 750,737 L 751,736 L 756,736 L 757,735 L 758,735 L 759,734 L 760,735 L 763,735 L 764,734 L 767,734 L 768,733 L 762,733 L 761,734 L 754,734 L 753,735 L 748,735 L 747,736 L 746,735 L 745,735 L 744,736 L 743,735 L 743,734 L 744,733 L 744,731 L 743,730 L 744,729 L 749,729 L 750,728 L 752,728 L 753,729 L 754,728 L 762,728 L 763,727 L 767,727 L 768,726 L 771,726 L 772,725 L 771,724 L 768,724 L 767,725 L 765,725 L 764,726 L 763,726 L 762,725 L 759,725 L 758,726 L 755,726 L 753,724 L 755,722 L 756,722 L 757,721 L 763,721 L 765,719 L 768,719 L 769,718 L 771,718 L 772,719 L 773,718 L 775,718 L 776,717 L 778,717 L 779,716 L 785,716 L 786,715 L 791,715 L 791,714 L 789,714 L 787,712 L 788,711 L 792,711 L 792,710 L 793,709 L 798,709 L 799,708 L 802,708 L 804,706 L 804,704 L 805,703 L 807,703 L 808,702 L 809,703 L 811,703 L 812,702 L 815,702 L 815,701 L 816,700 L 817,700 L 819,698 L 824,698 L 824,697 L 825,696 L 828,696 L 829,695 L 829,694 L 825,694 L 824,695 L 823,694 L 822,695 L 821,694 L 820,695 L 819,694 L 818,695 L 816,695 L 815,694 L 816,693 L 817,693 L 818,692 L 824,692 L 825,691 L 826,691 L 826,690 L 825,689 L 824,690 L 820,690 L 819,691 L 818,691 L 817,692 L 807,692 L 806,693 L 805,693 L 804,692 L 802,692 L 801,693 L 800,693 L 799,692 L 798,693 L 795,693 L 794,694 L 793,694 L 791,692 L 792,691 L 793,691 L 795,689 L 803,689 L 804,688 L 807,688 L 808,687 L 811,687 L 811,686 L 810,685 L 811,684 L 818,684 L 819,683 L 820,684 L 824,684 L 827,681 L 831,681 L 832,680 L 833,681 L 835,681 L 834,680 L 834,679 L 835,678 L 838,678 L 839,677 L 847,677 L 849,679 L 849,680 L 850,680 L 850,679 L 849,678 L 848,678 L 847,677 L 848,676 L 849,676 L 850,675 L 853,675 L 854,674 L 858,674 L 858,673 L 856,673 L 855,672 L 854,673 L 850,673 L 849,674 L 846,674 L 845,675 L 844,675 L 842,673 L 843,672 L 845,672 L 846,671 L 847,671 L 847,670 L 846,671 L 845,671 L 844,672 L 843,672 L 842,673 L 841,672 L 840,672 L 839,671 L 837,671 L 836,670 L 835,670 L 834,671 L 830,671 L 829,672 L 828,672 L 826,670 L 829,667 L 831,667 L 832,666 L 838,666 L 839,665 L 840,666 L 841,666 L 842,665 L 843,665 L 844,664 L 849,664 L 850,663 L 855,663 L 856,662 L 855,661 L 857,659 L 861,659 L 862,658 L 863,658 L 864,659 L 862,661 L 861,661 L 864,661 L 865,660 L 865,658 L 866,657 L 870,657 L 871,656 L 874,656 L 873,655 L 872,655 L 871,656 L 865,656 L 864,657 L 855,657 L 854,658 L 852,658 L 851,659 L 848,659 L 847,658 L 846,659 L 845,658 L 844,659 L 837,659 L 836,660 L 830,660 L 829,661 L 828,661 L 826,659 L 826,658 L 825,657 L 821,657 L 820,658 L 813,658 L 812,659 L 805,659 L 804,658 L 803,658 L 801,660 L 800,660 L 799,659 L 797,661 L 796,660 L 794,660 L 793,661 L 792,661 L 791,660 L 790,661 L 781,661 L 780,662 L 779,662 L 778,661 L 779,660 L 779,659 L 778,659 L 777,660 L 775,660 L 774,661 L 773,661 L 773,662 L 772,663 L 767,663 L 766,664 L 765,663 L 764,664 L 759,664 L 758,665 L 757,665 L 756,664 L 756,663 L 753,663 L 751,665 L 750,665 L 749,666 L 746,666 L 745,667 L 742,667 L 741,666 L 741,664 L 740,664 L 740,665 L 739,666 L 736,666 L 735,665 L 734,665 L 733,666 L 732,666 L 731,665 L 730,665 L 729,666 L 726,666 L 725,665 L 726,664 L 725,663 L 721,663 L 720,664 L 718,664 L 717,663 L 708,663 L 707,662 L 708,661 L 719,661 L 720,660 L 719,659 L 711,659 L 710,660 L 709,660 L 707,658 L 700,658 L 699,657 L 698,657 L 697,658 L 695,658 L 694,657 L 688,657 L 688,658 L 687,659 L 686,658 L 679,658 L 677,656 L 675,658 L 674,658 L 673,657 L 665,657 L 664,658 L 663,657 L 659,657 L 658,658 L 658,660 L 657,661 L 655,661 L 654,660 L 653,661 L 652,661 L 651,660 L 652,659 L 652,657 L 653,656 L 652,657 L 651,657 L 650,658 L 650,660 L 649,661 L 648,661 L 647,660 L 648,659 L 647,658 L 647,657 L 646,656 L 642,656 L 641,655 L 633,655 L 633,656 L 634,657 L 633,658 L 630,658 L 629,657 L 628,657 L 627,656 L 622,656 L 622,658 L 621,659 L 619,657 L 620,656 L 619,655 L 618,655 L 617,654 L 618,653 L 620,653 L 621,654 L 622,653 L 622,652 L 618,652 L 617,651 L 614,651 L 613,650 L 612,650 L 611,649 L 610,649 L 609,648 L 608,649 L 606,649 L 604,647 L 602,647 L 603,648 L 603,649 L 602,650 L 601,650 L 599,648 L 598,648 L 597,649 L 596,648 L 594,648 L 593,647 L 592,647 L 591,646 L 591,638 L 592,637 L 592,635 L 591,634 L 591,628 L 590,627 L 590,626 L 591,625 L 591,624 L 592,623 L 593,624 L 595,624 L 597,626 L 597,627 L 596,628 L 596,631 L 597,632 L 596,633 L 597,634 L 597,636 L 598,637 L 598,638 L 597,639 L 597,643 L 598,644 L 598,642 L 599,641 L 599,638 L 598,637 L 599,636 L 599,632 L 600,631 L 599,630 L 599,619 L 598,618 L 598,614 L 599,613 L 599,611 L 598,610 L 598,606 L 601,603 L 599,603 L 598,602 L 599,601 L 599,600 L 598,599 L 599,598 L 601,598 L 601,596 L 599,594 L 600,593 L 601,593 L 601,584 L 602,583 L 601,582 L 601,575 L 602,574 L 603,575 L 603,578 L 604,579 L 605,578 L 605,577 L 604,576 L 604,575 L 605,574 L 605,569 L 606,568 L 607,568 L 607,566 L 606,566 L 605,565 L 605,564 L 606,563 L 608,563 L 608,561 L 607,560 L 606,560 L 605,559 L 606,558 L 606,557 L 605,556 L 605,554 L 606,553 L 606,550 L 605,549 L 605,548 L 606,547 L 607,547 L 609,545 L 611,547 L 611,548 L 610,549 L 610,557 L 609,558 L 608,558 L 609,558 L 610,559 L 610,564 L 609,565 L 610,566 L 610,570 L 609,571 L 608,571 L 607,570 L 607,571 L 608,572 L 608,573 L 607,574 L 607,575 L 608,576 L 608,579 L 607,580 L 607,581 L 608,582 L 608,585 L 607,586 L 608,587 L 608,591 L 607,592 L 607,593 L 608,594 L 608,599 L 609,600 L 609,603 L 607,605 L 607,606 L 606,607 L 607,608 L 608,608 L 610,610 L 610,614 L 611,614 L 612,613 L 613,614 L 613,612 L 614,611 L 615,612 L 615,616 L 614,617 L 614,618 L 615,619 L 616,619 L 616,611 L 615,611 L 614,610 L 614,607 L 613,606 L 613,602 L 615,600 L 615,599 L 613,597 L 613,595 L 614,594 L 615,595 L 615,596 L 615,595 L 617,593 L 617,590 L 615,588 L 615,585 L 616,584 L 616,577 L 615,576 L 616,575 L 616,574 L 615,573 L 615,572 L 616,571 L 616,566 L 617,565 L 616,564 L 616,562 L 617,561 L 618,561 L 618,560 L 617,559 L 617,554 L 618,553 L 618,549 L 617,548 L 617,545 L 618,544 L 617,543 L 617,542 L 618,541 L 618,539 L 619,538 L 619,536 L 620,535 L 620,534 L 618,532 L 619,531 L 619,529 L 618,529 L 618,530 L 617,531 L 616,530 L 616,528 L 617,527 L 618,527 L 618,525 L 617,524 L 617,522 L 619,520 L 619,518 L 617,516 L 619,514 L 620,514 L 620,513 L 618,513 L 617,514 L 616,513 L 616,510 L 617,509 L 616,508 L 616,505 L 617,504 L 616,503 L 616,501 L 615,500 L 615,498 L 616,497 L 617,497 L 617,496 L 616,495 L 616,480 L 617,479 L 617,478 L 616,477 L 616,474 L 614,474 L 614,475 L 613,476 L 613,479 L 614,480 L 613,481 L 613,482 L 612,483 L 611,482 L 611,477 L 611,480 L 610,481 L 610,494 L 611,495 L 610,496 L 610,498 L 609,499 L 610,500 L 610,501 L 611,502 L 611,503 L 610,504 L 611,505 L 611,506 L 609,508 L 610,509 L 610,511 L 611,512 L 611,513 L 609,515 L 609,517 L 608,518 L 607,518 L 605,516 L 605,515 L 604,514 L 604,513 L 605,512 L 606,512 L 607,511 L 607,508 L 606,507 L 606,502 L 607,501 L 606,501 L 605,500 L 607,498 L 607,497 L 606,496 L 606,495 L 607,494 L 607,480 L 606,479 L 606,477 L 605,477 L 604,478 L 603,477 L 603,475 L 604,474 L 606,474 L 605,474 L 603,472 L 604,471 L 605,471 L 605,469 L 604,468 L 604,462 L 605,461 L 605,459 L 604,458 L 604,457 L 605,456 L 607,458 L 608,457 L 607,456 L 608,455 L 608,453 L 607,452 L 607,451 L 608,450 L 608,444 L 609,443 L 609,442 L 609,443 L 608,444 L 607,443 L 607,441 L 608,440 L 609,440 L 609,438 L 608,437 L 608,436 L 609,435 L 609,431 L 608,430 L 609,429 L 609,426 L 610,425 L 615,425 L 616,424 L 617,425 L 617,431 L 616,432 L 615,431 L 615,430 L 614,429 L 614,428 L 613,427 L 612,428 L 612,430 L 611,431 L 611,433 L 612,434 L 611,435 L 611,448 L 613,448 L 613,444 L 614,443 L 614,440 L 613,439 L 614,438 L 614,435 L 613,434 L 614,433 L 616,433 L 617,434 L 618,434 L 618,425 L 619,424 L 627,424 L 628,425 L 630,425 L 630,424 L 629,423 L 630,422 L 630,421 L 631,420 L 633,420 L 634,421 L 640,421 L 641,420 L 642,421 L 642,423 L 644,423 L 644,422 L 645,421 L 646,422 L 648,422 L 649,421 L 650,421 L 651,422 L 653,422 L 654,421 L 661,421 L 662,420 L 663,421 L 661,419 L 660,420 L 654,420 L 653,419 L 651,419 L 650,420 L 649,419 L 649,418 L 650,417 L 661,417 L 662,416 L 663,416 L 663,415 L 664,414 L 665,415 L 665,416 L 673,416 L 672,415 L 673,414 L 674,414 L 675,415 L 676,415 L 677,414 L 678,415 L 678,418 L 680,418 L 680,417 L 681,416 L 682,417 L 690,417 L 690,416 L 689,415 L 690,414 L 690,413 L 691,412 L 693,412 L 694,411 L 696,413 L 698,413 L 699,414 L 700,413 L 699,413 L 698,412 L 698,411 L 699,410 L 705,410 L 706,409 L 707,410 L 708,410 L 709,409 L 710,409 L 711,410 L 711,412 L 710,413 L 709,413 L 708,412 L 707,412 L 705,414 L 706,415 L 707,414 L 708,415 L 710,415 L 711,414 L 712,414 L 714,416 L 716,416 L 715,415 L 716,414 L 718,414 L 719,415 L 718,416 L 719,417 L 717,419 L 716,419 L 715,420 L 720,420 L 721,421 L 724,418 L 726,418 L 727,417 L 730,417 L 731,418 L 731,420 L 733,420 L 735,418 L 739,418 L 741,420 L 740,421 L 742,421 L 744,419 L 746,421 L 748,421 L 749,422 L 751,422 L 752,421 L 754,421 L 756,423 L 761,423 L 762,422 L 763,423 L 765,423 L 766,422 L 767,423 L 769,423 L 770,422 L 774,422 L 776,424 L 777,423 L 778,423 L 781,426 L 781,424 L 780,424 L 778,422 L 777,422 L 776,421 L 778,419 L 778,418 L 777,418 L 776,417 L 776,416 L 777,415 L 779,415 L 781,413 L 783,413 L 784,414 L 785,414 L 786,415 L 787,415 L 787,414 L 785,412 L 785,411 L 784,410 L 785,409 L 784,410 L 783,410 L 780,407 L 780,406 L 779,405 L 778,405 L 777,404 L 778,403 L 780,403 L 782,405 L 783,405 L 784,406 L 785,406 L 787,408 L 788,408 L 789,409 L 790,409 L 792,411 L 793,411 L 795,413 L 800,413 L 799,412 L 798,412 L 797,411 L 797,410 L 791,404 L 791,402 L 792,401 L 792,400 L 793,399 L 794,400 L 794,402 L 796,404 L 797,404 L 798,405 L 797,404 L 797,403 L 796,402 L 796,399 L 792,395 L 792,394 L 791,393 L 792,392 L 794,392 L 796,394 L 797,394 L 798,395 L 800,395 L 800,394 L 798,394 L 797,393 L 797,392 L 796,391 L 797,390 L 798,390 L 799,391 L 800,391 L 802,393 L 803,393 L 804,394 L 804,393 L 802,391 L 803,390 L 804,390 L 804,389 L 801,386 L 800,386 L 798,384 L 799,383 L 802,383 L 800,381 L 799,382 L 799,383 L 798,384 L 797,384 L 796,385 L 794,383 L 794,382 L 793,382 L 790,379 L 792,377 L 792,376 L 791,376 L 788,373 L 790,371 L 788,369 L 786,369 L 785,368 L 785,367 L 784,367 L 782,365 L 782,363 L 781,363 L 779,361 L 780,360 L 778,358 L 775,358 L 773,356 L 772,356 L 768,352 L 769,351 L 770,351 L 771,352 L 773,352 L 773,350 L 771,348 L 770,348 L 768,346 L 760,346 L 759,345 L 758,345 L 757,344 L 756,344 L 754,342 L 754,340 L 755,339 L 754,339 L 753,338 L 752,338 L 751,337 L 750,337 L 749,336 L 746,336 L 745,335 L 741,335 L 740,336 L 739,335 L 736,335 L 735,336 L 733,336 L 732,335 L 731,336 L 730,335 L 729,335 L 727,333 L 728,332 L 735,332 L 735,331 L 731,331 L 730,330 L 729,330 L 728,331 L 727,331 L 726,330 L 723,330 L 721,328 L 720,329 L 716,329 L 714,331 L 712,331 L 711,330 L 711,329 L 710,329 L 708,331 L 706,331 L 705,330 L 700,330 L 699,329 L 694,329 L 694,330 L 695,331 L 693,333 L 687,333 L 686,332 L 684,332 L 686,334 L 686,335 L 685,336 L 684,335 L 682,337 L 674,337 L 674,338 L 675,339 L 676,339 L 678,341 L 678,342 L 676,344 L 675,343 L 673,343 L 673,344 L 675,344 L 676,345 L 675,346 L 673,346 L 672,347 L 670,347 L 669,346 L 668,347 L 665,347 L 664,348 L 663,347 L 663,346 L 660,346 L 659,347 L 655,347 L 655,348 L 654,349 L 652,349 L 651,348 L 650,349 L 636,349 L 635,350 L 634,350 L 633,349 L 632,349 L 632,350 L 631,351 L 630,350 L 629,350 L 628,351 L 624,351 L 623,350 L 625,348 L 625,346 L 623,346 L 622,345 L 622,344 L 623,343 L 623,339 L 622,338 L 623,337 L 624,337 L 625,338 L 625,339 L 626,339 L 626,324 L 627,323 L 627,322 L 626,321 L 626,320 L 625,319 L 625,315 L 624,314 L 625,313 L 625,306 L 626,305 L 626,303 L 625,302 L 625,301 L 626,300 L 626,299 L 628,297 L 627,296 L 627,294 L 628,293 L 628,291 L 627,290 L 627,289 L 628,288 L 629,288 L 630,287 L 629,286 L 629,283 L 628,282 L 629,281 L 630,281 L 630,280 L 631,279 L 631,276 L 630,276 L 629,275 L 629,273 L 630,272 L 629,271 L 629,269 L 630,268 L 630,264 L 631,263 L 631,262 L 632,261 L 632,255 L 631,255 L 630,254 L 631,253 L 630,252 L 630,250 L 631,249 L 631,247 L 632,246 L 632,235 L 633,234 L 634,234 L 634,232 L 635,231 L 635,228 L 636,227 L 637,227 L 640,224 L 643,224 L 644,225 L 645,225 L 646,226 L 647,225 L 645,223 L 645,222 L 643,220 L 643,219 L 642,218 L 642,215 L 641,214 L 641,213 L 640,212 L 640,211 L 639,211 L 637,209 L 637,207 L 634,204 L 634,202 L 633,201 L 633,199 L 632,198 L 632,197 L 631,196 L 631,195 L 629,193 L 629,192 L 625,188 L 625,187 L 624,188 L 623,188 L 621,186 L 621,184 L 620,184 L 619,183 L 617,183 L 616,182 L 616,181 L 614,179 L 613,179 L 611,177 L 611,176 L 606,176 L 605,175 L 604,175 L 603,174 L 603,173 L 604,172 L 604,171 L 603,171 L 602,170 L 601,170 L 600,169 L 600,168 L 599,169 L 597,169 L 595,167 L 593,167 L 592,166 L 591,166 L 590,167 L 589,167 L 588,166 L 585,166 L 585,167 L 584,168 L 583,168 L 582,167 L 580,167 L 579,168 L 578,167 L 578,166 L 579,165 L 580,165 L 582,163 L 578,163 L 576,161 L 573,161 L 572,160 L 567,160 L 566,159 L 566,158 L 565,159 L 564,159 L 562,157 Z" fill="black"/>
<path d="M 440,144 Z" fill="black"/>
</svg>