<svg xmlns="http://www.w3.org/2000/svg" viewBox="0 0 1024 1536">
<path d="M 498,1479 Z" fill="#c80000"/>
<path d="M 502,1471 L 502,1473 L 503,1472 L 503,1471 Z" fill="#c80000"/>
<path d="M 546,1467 L 546,1468 L 547,1468 L 547,1467 Z" fill="#c80000"/>
<path d="M 495,1458 Z" fill="#c80000"/>
<path d="M 543,1457 Z" fill="#c80000"/>
<path d="M 467,1444 Z" fill="#c80000"/>
<path d="M 482,1443 L 481,1444 L 481,1445 L 482,1446 L 483,1446 L 484,1445 L 484,1443 Z" fill="#c80000"/>
<path d="M 459,1436 L 460,1436 Z" fill="#c80000"/>
<path d="M 473,1424 L 473,1425 L 472,1426 L 473,1426 Z" fill="#c80000"/>
<path d="M 503,1419 Z" fill="#c80000"/>
<path d="M 469,1417 Z" fill="#c80000"/>
<path d="M 430,1416 Z" fill="#c80000"/>
<path d="M 515,1413 Z" fill="#c80000"/>
<path d="M 511,1410 Z" fill="#c80000"/>
<path d="M 468,1410 L 468,1411 L 469,1411 L 469,1410 Z" fill="#c80000"/>
<path d="M 463,1410 L 462,1411 L 464,1411 Z" fill="#c80000"/>
<path d="M 431,1408 Z" fill="#c80000"/>
<path d="M 389,1407 L 389,1408 L 390,1408 L 390,1407 Z" fill="#c80000"/>
<path d="M 503,1403 Z" fill="#c80000"/>
<path d="M 493,1401 Z" fill="#c80000"/>
<path d="M 420,1401 L 418,1403 L 417,1403 L 418,1403 L 419,1402 L 420,1402 L 421,1401 Z" fill="#c80000"/>
<path d="M 542,1400 L 543,1400 Z" fill="#c80000"/>
<path d="M 496,1400 Z" fill="#c80000"/>
<path d="M 401,1399 L 402,1399 Z" fill="#c80000"/>
<path d="M 529,1398 L 529,1399 Z" fill="#c80000"/>
<path d="M 513,1397 Z" fill="#c80000"/>
<path d="M 418,1395 L 418,1396 L 417,1397 L 417,1398 L 418,1398 Z" fill="#c80000"/>
<path d="M 409,1395 L 409,1396 Z" fill="#c80000"/>
<path d="M 547,1394 Z" fill="#c80000"/>
<path d="M 536,1393 L 536,1395 L 537,1395 L 537,1393 Z" fill="#c80000"/>
<path d="M 476,1390 Z" fill="#c80000"/>
<path d="M 562,1389 Z" fill="#c80000"/>
<path d="M 507,1388 L 507,1389 Z" fill="#c80000"/>
<path d="M 487,1388 Z" fill="#c80000"/>
<path d="M 427,1386 L 428,1386 Z" fill="#c80000"/>
<path d="M 410,1386 L 410,1387 Z" fill="#c80000"/>
<path d="M 482,1385 Z" fill="#c80000"/>
<path d="M 504,1384 L 504,1385 L 505,1384 Z" fill="#c80000"/>
<path d="M 496,1383 L 497,1383 Z" fill="#c80000"/>
<path d="M 483,1382 L 484,1382 Z" fill="#c80000"/>
<path d="M 470,1382 Z" fill="#c80000"/>
<path d="M 579,1381 Z" fill="#c80000"/>
<path d="M 560,1379 Z" fill="#c80000"/>
<path d="M 435,1374 Z" fill="#c80000"/>
<path d="M 439,1373 Z" fill="#c80000"/>
<path d="M 564,1371 L 563,1372 L 563,1374 L 564,1375 L 566,1375 L 566,1374 L 567,1373 L 567,1372 L 566,1371 Z" fill="#c80000"/>
<path d="M 486,1368 L 487,1368 Z" fill="#c80000"/>
<path d="M 617,1367 L 617,1368 Z" fill="#c80000"/>
<path d="M 487,1360 L 486,1361 L 486,1362 L 488,1362 L 488,1360 Z" fill="#c80000"/>
<path d="M 420,1360 L 421,1361 L 422,1361 L 422,1360 Z" fill="#c80000"/>
<path d="M 505,1356 L 505,1357 L 506,1357 L 506,1356 Z" fill="#c80000"/>
<path d="M 494,1356 L 494,1358 L 495,1359 L 495,1356 Z" fill="#c80000"/>
<path d="M 456,1356 L 456,1357 L 457,1357 L 457,1356 Z" fill="#c80000"/>
<path d="M 505,1351 L 505,1352 Z" fill="#c80000"/>
<path d="M 434,1345 Z" fill="#c80000"/>
<path d="M 459,1344 L 458,1345 L 459,1345 Z" fill="#c80000"/>
<path d="M 507,1342 Z" fill="#c80000"/>
<path d="M 496,1341 L 496,1344 L 497,1345 L 499,1343 L 499,1341 Z" fill="#c80000"/>
<path d="M 443,1341 L 441,1343 L 442,1342 L 443,1342 L 444,1341 Z" fill="#c80000"/>
<path d="M 632,1340 Z" fill="#c80000"/>
<path d="M 538,1340 L 539,1340 Z" fill="#c80000"/>
<path d="M 501,1340 Z" fill="#c80000"/>
<path d="M 450,1338 Z" fill="#c80000"/>
<path d="M 613,1333 L 613,1334 Z" fill="#c80000"/>
<path d="M 637,1331 Z" fill="#c80000"/>
<path d="M 448,1331 Z" fill="#c80000"/>
<path d="M 505,1330 L 506,1330 Z" fill="#c80000"/>
<path d="M 544,1328 Z" fill="#c80000"/>
<path d="M 543,1322 Z" fill="#c80000"/>
<path d="M 539,1321 L 539,1322 Z" fill="#c80000"/>
<path d="M 543,1319 L 543,1320 L 544,1319 Z" fill="#c80000"/>
<path d="M 413,1317 Z" fill="#c80000"/>
<path d="M 418,1316 L 418,1318 L 420,1318 L 420,1317 L 419,1316 Z" fill="#c80000"/>
<path d="M 569,1314 L 569,1315 Z" fill="#c80000"/>
<path d="M 596,1312 Z" fill="#c80000"/>
<path d="M 424,1312 Z" fill="#c80000"/>
<path d="M 597,1309 Z" fill="#c80000"/>
<path d="M 552,1309 Z" fill="#c80000"/>
<path d="M 448,1303 Z" fill="#c80000"/>
<path d="M 562,1299 Z" fill="#c80000"/>
<path d="M 591,1298 L 592,1299 L 591,1300 L 590,1300 L 591,1301 L 592,1301 L 592,1298 Z" fill="#c80000"/>
<path d="M 545,1298 L 545,1299 Z" fill="#c80000"/>
<path d="M 440,1298 Z" fill="#c80000"/>
<path d="M 607,1297 Z" fill="#c80000"/>
<path d="M 477,1296 L 477,1297 Z" fill="#c80000"/>
<path d="M 463,1296 L 461,1298 L 462,1299 L 462,1300 L 463,1300 L 464,1301 L 463,1302 L 463,1305 L 462,1306 L 460,1306 L 460,1308 L 459,1309 L 458,1309 L 457,1308 L 456,1309 L 456,1311 L 457,1311 L 458,1310 L 459,1310 L 460,1309 L 463,1312 L 464,1312 L 465,1313 L 466,1313 L 468,1315 L 468,1316 L 469,1317 L 468,1318 L 468,1320 L 467,1321 L 467,1323 L 468,1324 L 468,1326 L 467,1327 L 467,1331 L 466,1332 L 466,1333 L 467,1334 L 467,1335 L 466,1336 L 466,1339 L 465,1340 L 464,1339 L 464,1337 L 462,1337 L 461,1338 L 461,1340 L 463,1342 L 464,1342 L 465,1343 L 464,1344 L 464,1346 L 463,1347 L 463,1349 L 462,1350 L 462,1351 L 460,1353 L 461,1354 L 460,1355 L 460,1356 L 459,1357 L 459,1358 L 458,1359 L 458,1361 L 457,1362 L 457,1363 L 455,1365 L 455,1366 L 453,1368 L 453,1369 L 450,1372 L 450,1373 L 436,1387 L 437,1387 L 438,1388 L 432,1394 L 431,1394 L 429,1396 L 428,1396 L 426,1398 L 425,1398 L 424,1399 L 423,1399 L 423,1401 L 424,1401 L 425,1400 L 426,1400 L 427,1399 L 428,1399 L 430,1397 L 431,1397 L 432,1396 L 433,1396 L 434,1395 L 435,1395 L 436,1394 L 437,1394 L 438,1393 L 439,1393 L 440,1394 L 438,1396 L 439,1395 L 440,1395 L 442,1393 L 444,1393 L 446,1391 L 447,1391 L 449,1389 L 450,1389 L 452,1387 L 453,1387 L 456,1384 L 459,1384 L 459,1383 L 463,1379 L 464,1379 L 468,1375 L 469,1375 L 472,1372 L 473,1373 L 474,1372 L 473,1371 L 479,1365 L 479,1364 L 482,1361 L 482,1360 L 484,1358 L 484,1357 L 485,1356 L 485,1355 L 487,1353 L 487,1352 L 488,1351 L 488,1350 L 489,1349 L 489,1348 L 492,1345 L 492,1343 L 493,1342 L 493,1340 L 494,1339 L 494,1338 L 495,1337 L 495,1335 L 496,1334 L 495,1333 L 495,1332 L 496,1331 L 496,1328 L 498,1326 L 499,1326 L 500,1325 L 501,1325 L 502,1324 L 502,1323 L 503,1322 L 503,1315 L 501,1313 L 501,1312 L 495,1306 L 495,1304 L 494,1304 L 493,1305 L 492,1304 L 490,1304 L 489,1303 L 487,1303 L 486,1302 L 481,1302 L 480,1301 L 475,1301 L 473,1299 L 471,1299 L 470,1300 L 465,1300 L 464,1299 L 464,1297 Z" fill="#c80000"/>
<path d="M 587,1295 L 586,1296 L 587,1296 Z" fill="#c80000"/>
<path d="M 536,1295 Z" fill="#c80000"/>
<path d="M 438,1294 L 438,1295 Z" fill="#c80000"/>
<path d="M 432,1293 L 433,1293 Z" fill="#c80000"/>
<path d="M 464,1291 L 464,1294 L 465,1294 L 465,1292 Z" fill="#c80000"/>
<path d="M 513,1289 L 510,1292 L 508,1292 L 505,1295 L 504,1295 L 502,1297 L 502,1299 L 504,1301 L 505,1301 L 507,1303 L 507,1304 L 508,1305 L 508,1307 L 509,1308 L 509,1313 L 510,1314 L 510,1325 L 509,1326 L 509,1327 L 510,1328 L 509,1329 L 510,1330 L 509,1331 L 509,1345 L 508,1346 L 509,1347 L 509,1356 L 508,1357 L 508,1361 L 506,1363 L 506,1364 L 504,1366 L 504,1371 L 503,1372 L 503,1373 L 504,1374 L 504,1376 L 505,1377 L 505,1378 L 510,1383 L 511,1383 L 514,1386 L 515,1386 L 518,1389 L 519,1389 L 520,1390 L 521,1390 L 522,1391 L 523,1391 L 524,1392 L 525,1392 L 526,1393 L 529,1393 L 530,1392 L 532,1392 L 534,1390 L 535,1390 L 536,1389 L 538,1389 L 539,1388 L 540,1388 L 541,1387 L 543,1387 L 547,1383 L 548,1383 L 559,1372 L 560,1372 L 562,1370 L 562,1369 L 575,1356 L 576,1356 L 576,1354 L 578,1352 L 578,1351 L 579,1350 L 579,1349 L 581,1347 L 581,1346 L 585,1342 L 585,1341 L 586,1340 L 586,1339 L 587,1338 L 587,1337 L 587,1338 L 586,1339 L 585,1339 L 585,1340 L 582,1343 L 581,1343 L 580,1342 L 580,1341 L 583,1338 L 583,1337 L 586,1334 L 586,1333 L 588,1331 L 589,1331 L 589,1330 L 590,1329 L 590,1328 L 588,1330 L 587,1330 L 582,1335 L 581,1334 L 581,1333 L 585,1329 L 585,1328 L 587,1326 L 587,1325 L 588,1324 L 588,1323 L 590,1321 L 590,1320 L 594,1316 L 594,1315 L 595,1314 L 594,1314 L 593,1315 L 593,1316 L 584,1325 L 583,1324 L 583,1323 L 585,1321 L 585,1320 L 586,1319 L 587,1319 L 588,1318 L 588,1317 L 585,1320 L 584,1320 L 582,1322 L 581,1322 L 579,1324 L 578,1324 L 577,1323 L 581,1319 L 581,1318 L 577,1322 L 576,1321 L 575,1321 L 573,1323 L 573,1324 L 571,1326 L 570,1326 L 569,1327 L 569,1328 L 562,1335 L 560,1335 L 543,1352 L 542,1352 L 539,1355 L 538,1355 L 536,1357 L 535,1357 L 534,1356 L 535,1355 L 535,1330 L 536,1329 L 536,1314 L 537,1313 L 537,1310 L 538,1309 L 538,1302 L 537,1301 L 537,1300 L 536,1300 L 534,1298 L 533,1298 L 532,1297 L 531,1297 L 530,1296 L 529,1296 L 528,1295 L 526,1295 L 525,1294 L 524,1294 L 523,1293 L 522,1293 L 521,1292 L 517,1292 L 515,1290 L 515,1289 Z" fill="#c80000"/>
<path d="M 538,1287 Z" fill="#c80000"/>
<path d="M 592,1284 Z" fill="#c80000"/>
<path d="M 585,1281 Z" fill="#c80000"/>
<path d="M 589,1274 L 589,1275 L 590,1275 L 590,1274 Z" fill="#c80000"/>
<path d="M 578,1269 Z" fill="#c80000"/>
<path d="M 620,1266 L 620,1267 Z" fill="#c80000"/>
<path d="M 593,1265 Z" fill="#c80000"/>
<path d="M 607,1263 L 608,1263 Z" fill="#c80000"/>
<path d="M 577,1259 Z" fill="#c80000"/>
<path d="M 510,1257 L 509,1258 L 511,1258 Z" fill="#c80000"/>
<path d="M 382,1253 L 383,1253 Z" fill="#c80000"/>
<path d="M 529,1251 L 529,1252 Z" fill="#c80000"/>
<path d="M 558,1250 L 557,1251 L 558,1251 Z" fill="#c80000"/>
<path d="M 418,1250 L 418,1251 L 419,1250 Z" fill="#c80000"/>
<path d="M 546,1249 Z" fill="#c80000"/>
<path d="M 565,1247 L 566,1248 L 566,1249 L 567,1250 L 567,1251 L 568,1251 L 569,1250 L 569,1248 L 568,1247 Z" fill="#c80000"/>
<path d="M 456,1247 Z" fill="#c80000"/>
<path d="M 540,1245 L 541,1245 Z" fill="#c80000"/>
<path d="M 538,1245 Z" fill="#c80000"/>
<path d="M 507,1245 L 507,1246 L 508,1246 L 508,1245 Z" fill="#c80000"/>
<path d="M 423,1244 L 423,1245 L 424,1245 L 424,1244 Z" fill="#c80000"/>
<path d="M 390,1242 Z" fill="#c80000"/>
<path d="M 526,1241 L 526,1242 L 527,1242 L 527,1241 Z" fill="#c80000"/>
<path d="M 402,1241 Z" fill="#c80000"/>
<path d="M 597,1240 L 597,1241 L 598,1241 Z" fill="#c80000"/>
<path d="M 528,1239 Z" fill="#c80000"/>
<path d="M 397,1239 Z" fill="#c80000"/>
<path d="M 544,1238 L 544,1239 Z" fill="#c80000"/>
<path d="M 519,1238 Z" fill="#c80000"/>
<path d="M 567,1237 L 566,1238 L 566,1239 L 568,1241 L 570,1239 L 568,1237 Z" fill="#c80000"/>
<path d="M 415,1237 Z" fill="#c80000"/>
<path d="M 559,1235 Z" fill="#c80000"/>
<path d="M 623,1233 L 623,1235 L 624,1235 L 625,1234 L 624,1233 Z" fill="#c80000"/>
<path d="M 594,1233 Z" fill="#c80000"/>
<path d="M 611,1232 L 611,1233 L 610,1234 L 610,1236 L 611,1236 L 612,1237 L 613,1236 L 614,1236 L 614,1232 Z" fill="#c80000"/>
<path d="M 552,1232 L 551,1233 L 551,1235 L 553,1235 L 553,1233 Z" fill="#c80000"/>
<path d="M 396,1232 L 396,1233 Z" fill="#c80000"/>
<path d="M 628,1226 Z" fill="#c80000"/>
<path d="M 559,1226 L 558,1227 L 559,1228 L 560,1227 L 560,1226 Z" fill="#c80000"/>
<path d="M 451,1224 L 451,1225 L 452,1225 Z" fill="#c80000"/>
<path d="M 646,1222 Z" fill="#c80000"/>
<path d="M 372,1220 Z" fill="#c80000"/>
<path d="M 432,1216 L 432,1217 L 433,1218 L 434,1217 L 433,1216 Z" fill="#c80000"/>
<path d="M 426,1215 Z" fill="#c80000"/>
<path d="M 460,1212 L 460,1213 L 459,1214 L 461,1214 L 461,1212 Z" fill="#c80000"/>
<path d="M 424,1206 L 425,1206 Z" fill="#c80000"/>
<path d="M 365,1206 L 365,1207 Z" fill="#c80000"/>
<path d="M 401,1204 L 400,1205 L 397,1205 L 396,1206 L 395,1206 L 394,1207 L 394,1209 L 393,1210 L 394,1211 L 394,1214 L 393,1215 L 392,1215 L 392,1217 L 394,1217 L 396,1219 L 397,1219 L 398,1220 L 398,1221 L 400,1221 L 401,1220 L 402,1220 L 403,1221 L 403,1223 L 404,1224 L 407,1224 L 409,1222 L 407,1220 L 407,1218 L 408,1217 L 409,1217 L 409,1215 L 410,1214 L 410,1212 L 411,1211 L 410,1211 L 409,1210 L 409,1207 L 406,1207 L 404,1205 L 403,1205 L 402,1204 Z" fill="#c80000"/>
<path d="M 525,1203 Z" fill="#c80000"/>
<path d="M 427,1198 Z" fill="#c80000"/>
<path d="M 379,1198 L 379,1199 Z" fill="#c80000"/>
<path d="M 586,1195 Z" fill="#c80000"/>
<path d="M 402,1195 L 401,1196 L 400,1196 L 399,1197 L 399,1199 L 400,1200 L 403,1200 L 404,1199 L 404,1197 Z" fill="#c80000"/>
<path d="M 510,1194 L 509,1195 L 510,1195 Z" fill="#c80000"/>
<path d="M 504,1194 L 504,1195 L 505,1194 Z" fill="#c80000"/>
<path d="M 407,1194 L 407,1196 L 409,1196 L 409,1195 L 408,1194 Z" fill="#c80000"/>
<path d="M 497,1193 L 497,1194 Z" fill="#c80000"/>
<path d="M 514,1192 Z" fill="#c80000"/>
<path d="M 662,1191 L 662,1192 L 663,1192 Z" fill="#c80000"/>
<path d="M 497,1190 L 497,1191 Z" fill="#c80000"/>
<path d="M 476,1190 L 475,1191 L 474,1191 L 473,1192 L 470,1192 L 467,1195 L 466,1194 L 465,1195 L 464,1195 L 463,1196 L 463,1197 L 462,1198 L 468,1204 L 468,1205 L 469,1206 L 469,1216 L 468,1217 L 468,1227 L 467,1228 L 467,1236 L 466,1237 L 466,1248 L 465,1249 L 465,1257 L 464,1258 L 464,1265 L 463,1266 L 463,1267 L 462,1268 L 462,1270 L 461,1271 L 468,1278 L 470,1278 L 471,1279 L 473,1279 L 474,1280 L 476,1280 L 477,1281 L 478,1281 L 479,1282 L 480,1282 L 481,1283 L 508,1283 L 509,1284 L 510,1284 L 511,1283 L 532,1283 L 533,1282 L 543,1282 L 544,1281 L 551,1281 L 552,1280 L 556,1280 L 557,1279 L 565,1279 L 566,1278 L 570,1278 L 572,1276 L 572,1273 L 573,1272 L 572,1271 L 572,1269 L 573,1268 L 573,1267 L 572,1266 L 569,1266 L 567,1264 L 567,1263 L 568,1262 L 567,1261 L 564,1261 L 563,1260 L 563,1259 L 564,1258 L 564,1257 L 563,1256 L 562,1257 L 562,1258 L 563,1259 L 563,1260 L 562,1261 L 560,1259 L 559,1259 L 557,1257 L 556,1257 L 555,1256 L 553,1256 L 552,1257 L 550,1257 L 549,1256 L 547,1256 L 546,1257 L 543,1257 L 541,1259 L 540,1259 L 541,1260 L 540,1261 L 537,1261 L 536,1262 L 524,1262 L 522,1260 L 522,1259 L 522,1260 L 523,1261 L 522,1262 L 516,1262 L 515,1261 L 516,1260 L 515,1260 L 515,1261 L 514,1262 L 503,1262 L 502,1261 L 490,1261 L 488,1259 L 488,1252 L 489,1251 L 488,1250 L 489,1249 L 489,1240 L 490,1239 L 490,1238 L 491,1237 L 500,1237 L 501,1236 L 507,1236 L 508,1235 L 513,1235 L 514,1234 L 517,1234 L 518,1233 L 521,1233 L 522,1232 L 525,1232 L 526,1231 L 529,1231 L 530,1230 L 533,1230 L 534,1229 L 537,1229 L 538,1228 L 539,1228 L 540,1227 L 542,1227 L 543,1226 L 547,1226 L 548,1225 L 551,1225 L 552,1224 L 555,1224 L 556,1223 L 557,1223 L 558,1222 L 559,1222 L 559,1221 L 560,1220 L 560,1219 L 562,1217 L 562,1216 L 561,1215 L 561,1214 L 560,1213 L 559,1213 L 558,1212 L 556,1212 L 555,1211 L 554,1212 L 550,1212 L 546,1208 L 545,1208 L 541,1204 L 540,1204 L 539,1203 L 539,1202 L 538,1202 L 537,1201 L 538,1200 L 538,1199 L 538,1200 L 536,1202 L 534,1202 L 533,1203 L 531,1203 L 529,1205 L 528,1205 L 528,1206 L 529,1207 L 529,1209 L 525,1213 L 523,1213 L 522,1214 L 521,1214 L 520,1215 L 518,1215 L 517,1216 L 515,1216 L 514,1217 L 512,1217 L 511,1218 L 507,1218 L 506,1219 L 503,1219 L 502,1220 L 499,1220 L 498,1221 L 495,1221 L 494,1222 L 492,1222 L 491,1221 L 491,1220 L 492,1219 L 492,1213 L 493,1212 L 493,1210 L 494,1209 L 494,1208 L 496,1206 L 496,1205 L 497,1204 L 497,1201 L 493,1197 L 492,1197 L 490,1195 L 489,1195 L 488,1194 L 486,1194 L 485,1193 L 484,1193 L 483,1192 L 480,1192 L 479,1191 L 478,1191 L 477,1190 Z" fill="#c80000"/>
<path d="M 521,1189 L 520,1190 L 520,1191 L 521,1191 L 522,1190 Z" fill="#c80000"/>
<path d="M 418,1186 L 418,1187 L 419,1187 L 419,1186 Z" fill="#c80000"/>
<path d="M 478,1185 L 478,1186 Z" fill="#c80000"/>
<path d="M 476,1175 L 476,1176 Z" fill="#c80000"/>
<path d="M 481,1170 Z" fill="#c80000"/>
<path d="M 502,1164 Z" fill="#c80000"/>
<path d="M 505,1154 L 504,1155 L 504,1156 L 505,1156 Z" fill="#c80000"/>
<path d="M 589,1148 Z" fill="#c80000"/>
<path d="M 508,1141 Z" fill="#c80000"/>
<path d="M 589,1140 Z" fill="#c80000"/>
<path d="M 569,1135 Z" fill="#c80000"/>
<path d="M 574,1134 L 574,1135 Z" fill="#c80000"/>
<path d="M 592,1131 L 592,1132 Z" fill="#c80000"/>
<path d="M 519,1131 L 520,1131 Z" fill="#c80000"/>
<path d="M 515,1129 Z" fill="#c80000"/>
<path d="M 589,1123 L 588,1124 L 589,1124 L 590,1123 Z" fill="#c80000"/>
<path d="M 594,1122 L 593,1123 L 594,1124 L 595,1123 L 595,1122 Z" fill="#c80000"/>
<path d="M 586,1122 L 587,1122 Z" fill="#c80000"/>
<path d="M 613,1121 L 613,1122 Z" fill="#c80000"/>
<path d="M 595,1118 Z" fill="#c80000"/>
<path d="M 610,1115 Z" fill="#c80000"/>
<path d="M 478,1110 L 479,1110 Z" fill="#c80000"/>
<path d="M 583,1106 Z" fill="#c80000"/>
<path d="M 398,1106 L 397,1107 L 398,1108 L 398,1109 L 400,1107 L 399,1106 Z" fill="#c80000"/>
<path d="M 591,1105 Z" fill="#c80000"/>
<path d="M 572,1102 L 572,1103 Z" fill="#c80000"/>
<path d="M 529,1102 L 530,1102 Z" fill="#c80000"/>
<path d="M 592,1100 Z" fill="#c80000"/>
<path d="M 632,1099 Z" fill="#c80000"/>
<path d="M 594,1099 L 595,1099 Z" fill="#c80000"/>
<path d="M 449,1099 L 450,1100 L 450,1099 Z" fill="#c80000"/>
<path d="M 379,1098 L 379,1099 Z" fill="#c80000"/>
<path d="M 482,1097 L 481,1098 L 479,1098 L 479,1099 L 480,1099 Z" fill="#c80000"/>
<path d="M 461,1097 L 460,1098 L 460,1100 L 463,1100 L 463,1098 L 462,1097 Z" fill="#c80000"/>
<path d="M 397,1096 L 397,1097 L 398,1097 Z" fill="#c80000"/>
<path d="M 539,1095 Z" fill="#c80000"/>
<path d="M 489,1095 Z" fill="#c80000"/>
<path d="M 620,1093 L 620,1094 Z" fill="#c80000"/>
<path d="M 610,1092 Z" fill="#c80000"/>
<path d="M 597,1091 L 598,1091 Z" fill="#c80000"/>
<path d="M 464,1089 L 464,1090 L 465,1090 L 465,1089 Z" fill="#c80000"/>
<path d="M 427,1089 L 426,1090 L 426,1092 L 428,1092 L 428,1090 Z" fill="#c80000"/>
<path d="M 594,1086 Z" fill="#c80000"/>
<path d="M 488,1083 L 488,1084 Z" fill="#c80000"/>
<path d="M 523,1082 L 523,1083 L 524,1082 Z" fill="#c80000"/>
<path d="M 504,1079 L 503,1080 L 501,1080 L 500,1081 L 499,1081 L 498,1082 L 497,1082 L 496,1083 L 492,1083 L 490,1085 L 490,1087 L 496,1093 L 496,1094 L 495,1095 L 495,1101 L 494,1102 L 494,1107 L 493,1108 L 493,1109 L 491,1111 L 487,1111 L 486,1112 L 477,1112 L 476,1113 L 468,1113 L 467,1112 L 464,1112 L 462,1110 L 460,1110 L 459,1109 L 458,1109 L 457,1108 L 454,1108 L 454,1109 L 451,1112 L 450,1112 L 449,1113 L 447,1113 L 446,1114 L 446,1117 L 444,1119 L 445,1120 L 445,1122 L 449,1126 L 450,1125 L 453,1128 L 453,1130 L 457,1134 L 458,1134 L 460,1136 L 461,1136 L 462,1137 L 463,1136 L 466,1136 L 467,1137 L 468,1136 L 469,1136 L 470,1137 L 471,1136 L 472,1136 L 473,1135 L 475,1135 L 478,1132 L 483,1132 L 484,1133 L 484,1134 L 483,1135 L 483,1136 L 482,1137 L 482,1138 L 481,1139 L 481,1140 L 479,1142 L 479,1143 L 477,1145 L 477,1146 L 475,1148 L 475,1149 L 473,1151 L 473,1152 L 455,1170 L 454,1170 L 449,1175 L 448,1175 L 448,1176 L 447,1177 L 448,1178 L 447,1179 L 446,1179 L 445,1180 L 444,1180 L 443,1181 L 442,1181 L 440,1183 L 441,1183 L 442,1182 L 443,1182 L 444,1181 L 445,1182 L 447,1180 L 450,1180 L 451,1181 L 450,1182 L 451,1182 L 453,1180 L 455,1180 L 456,1179 L 457,1179 L 458,1178 L 459,1178 L 460,1177 L 462,1177 L 463,1176 L 464,1176 L 465,1175 L 466,1175 L 467,1174 L 468,1174 L 470,1172 L 471,1172 L 472,1171 L 473,1171 L 474,1170 L 475,1170 L 478,1167 L 479,1167 L 493,1153 L 493,1152 L 496,1149 L 496,1148 L 499,1145 L 499,1144 L 502,1141 L 502,1140 L 503,1139 L 503,1138 L 505,1136 L 505,1135 L 506,1134 L 506,1133 L 508,1131 L 508,1130 L 509,1129 L 509,1128 L 512,1125 L 516,1125 L 517,1124 L 523,1124 L 524,1123 L 528,1123 L 529,1122 L 536,1122 L 537,1123 L 537,1127 L 536,1128 L 536,1132 L 534,1134 L 534,1138 L 533,1139 L 533,1142 L 532,1143 L 532,1145 L 531,1146 L 531,1148 L 530,1149 L 530,1151 L 529,1152 L 529,1153 L 528,1154 L 528,1155 L 527,1156 L 527,1157 L 526,1158 L 526,1161 L 525,1162 L 522,1162 L 521,1163 L 516,1163 L 515,1164 L 513,1164 L 510,1161 L 509,1161 L 508,1160 L 508,1159 L 507,1159 L 505,1161 L 504,1160 L 504,1161 L 505,1162 L 505,1163 L 506,1164 L 505,1165 L 504,1165 L 504,1166 L 505,1167 L 506,1167 L 509,1170 L 510,1170 L 514,1174 L 514,1175 L 516,1177 L 516,1178 L 517,1179 L 517,1180 L 519,1182 L 520,1182 L 522,1184 L 523,1184 L 525,1186 L 526,1186 L 528,1188 L 529,1188 L 531,1190 L 533,1190 L 534,1191 L 537,1191 L 538,1192 L 539,1191 L 540,1192 L 541,1192 L 542,1191 L 543,1191 L 543,1190 L 544,1189 L 545,1189 L 546,1188 L 547,1189 L 548,1189 L 548,1188 L 550,1186 L 550,1184 L 551,1183 L 551,1182 L 552,1181 L 552,1180 L 553,1179 L 553,1178 L 554,1177 L 553,1176 L 554,1175 L 554,1174 L 556,1172 L 556,1171 L 557,1170 L 557,1168 L 558,1167 L 558,1163 L 559,1162 L 559,1161 L 560,1160 L 560,1158 L 561,1157 L 561,1154 L 562,1153 L 562,1146 L 563,1145 L 563,1141 L 564,1140 L 564,1132 L 563,1132 L 562,1131 L 565,1128 L 565,1127 L 566,1126 L 567,1126 L 568,1127 L 569,1127 L 570,1126 L 571,1126 L 571,1125 L 574,1122 L 574,1120 L 572,1118 L 572,1116 L 571,1115 L 571,1114 L 568,1111 L 567,1111 L 565,1109 L 565,1108 L 563,1106 L 564,1105 L 563,1106 L 561,1106 L 559,1104 L 560,1103 L 559,1103 L 557,1101 L 552,1101 L 551,1100 L 550,1101 L 546,1101 L 545,1102 L 543,1102 L 542,1103 L 541,1103 L 540,1104 L 534,1104 L 533,1105 L 532,1105 L 531,1104 L 530,1104 L 529,1105 L 526,1105 L 525,1106 L 519,1106 L 518,1105 L 520,1103 L 520,1102 L 521,1101 L 522,1101 L 525,1098 L 525,1097 L 526,1096 L 525,1095 L 525,1091 L 518,1084 L 519,1083 L 518,1082 L 517,1083 L 516,1083 L 514,1081 L 512,1081 L 511,1080 L 511,1079 Z" fill="#c80000"/>
<path d="M 449,1075 Z" fill="#c80000"/>
<path d="M 528,1074 L 528,1075 L 530,1075 L 530,1074 Z" fill="#c80000"/>
<path d="M 514,1074 L 514,1075 Z" fill="#c80000"/>
<path d="M 477,1074 L 477,1075 L 478,1074 Z" fill="#c80000"/>
<path d="M 534,1073 L 533,1074 L 533,1076 L 534,1076 L 537,1079 L 538,1079 L 540,1081 L 540,1082 L 544,1086 L 544,1087 L 545,1088 L 545,1089 L 546,1090 L 546,1092 L 547,1093 L 547,1094 L 549,1096 L 549,1097 L 550,1097 L 551,1098 L 552,1098 L 553,1099 L 560,1099 L 561,1098 L 562,1098 L 562,1097 L 563,1096 L 564,1097 L 564,1095 L 565,1094 L 564,1093 L 564,1089 L 555,1080 L 554,1080 L 553,1079 L 552,1079 L 551,1078 L 549,1078 L 548,1077 L 545,1077 L 544,1076 L 541,1076 L 540,1075 L 539,1076 L 538,1076 L 536,1074 L 536,1073 Z" fill="#c80000"/>
<path d="M 616,1072 Z" fill="#c80000"/>
<path d="M 515,1071 Z" fill="#c80000"/>
<path d="M 481,1071 L 481,1072 L 483,1072 L 483,1071 Z" fill="#c80000"/>
<path d="M 592,1070 L 592,1071 L 593,1071 L 593,1070 Z" fill="#c80000"/>
<path d="M 551,1070 L 551,1071 Z" fill="#c80000"/>
<path d="M 485,1069 Z" fill="#c80000"/>
<path d="M 455,1069 Z" fill="#c80000"/>
<path d="M 569,1068 Z" fill="#c80000"/>
<path d="M 561,1067 L 560,1068 L 560,1069 L 561,1070 L 562,1070 L 567,1075 L 567,1076 L 568,1077 L 568,1078 L 571,1081 L 571,1082 L 573,1084 L 573,1087 L 574,1088 L 574,1089 L 575,1090 L 575,1091 L 576,1092 L 577,1092 L 579,1094 L 583,1094 L 584,1093 L 586,1093 L 587,1092 L 588,1092 L 590,1090 L 590,1089 L 591,1088 L 591,1082 L 590,1081 L 590,1080 L 589,1079 L 589,1078 L 586,1075 L 584,1075 L 583,1074 L 583,1073 L 580,1073 L 579,1072 L 576,1072 L 575,1071 L 574,1071 L 573,1070 L 568,1070 L 567,1069 L 566,1069 L 565,1068 L 564,1068 L 563,1067 Z" fill="#c80000"/>
<path d="M 469,1067 Z" fill="#c80000"/>
<path d="M 533,1065 L 532,1066 L 531,1066 L 530,1067 L 531,1068 L 531,1069 L 535,1069 L 535,1066 L 534,1065 Z" fill="#c80000"/>
<path d="M 510,1062 L 510,1063 L 511,1063 L 511,1062 Z" fill="#c80000"/>
<path d="M 546,1061 L 547,1062 L 547,1061 Z" fill="#c80000"/>
<path d="M 425,1059 Z" fill="#c80000"/>
<path d="M 422,1059 L 423,1059 Z" fill="#c80000"/>
<path d="M 546,1058 L 546,1059 Z" fill="#c80000"/>
<path d="M 583,1056 Z" fill="#c80000"/>
<path d="M 508,1056 L 508,1057 Z" fill="#c80000"/>
<path d="M 431,1055 L 432,1056 L 432,1055 Z" fill="#c80000"/>
<path d="M 550,1048 L 551,1048 Z" fill="#c80000"/>
<path d="M 546,1045 L 547,1046 L 547,1045 Z" fill="#c80000"/>
<path d="M 541,1045 L 540,1046 L 540,1047 L 541,1048 L 543,1048 L 543,1046 L 542,1045 Z" fill="#c80000"/>
<path d="M 532,1045 L 531,1046 L 532,1047 L 534,1047 L 535,1046 L 535,1045 Z" fill="#c80000"/>
<path d="M 579,1044 Z" fill="#c80000"/>
<path d="M 552,1044 L 553,1044 Z" fill="#c80000"/>
<path d="M 437,1043 Z" fill="#c80000"/>
<path d="M 562,1040 Z" fill="#c80000"/>
<path d="M 592,1039 Z" fill="#c80000"/>
<path d="M 576,1036 L 575,1037 L 574,1037 L 576,1039 L 577,1038 L 578,1038 Z" fill="#c80000"/>
<path d="M 583,1034 Z" fill="#c80000"/>
<path d="M 603,1032 L 603,1033 Z" fill="#c80000"/>
<path d="M 593,1029 Z" fill="#c80000"/>
<path d="M 563,1027 Z" fill="#c80000"/>
<path d="M 459,1024 L 460,1024 Z" fill="#c80000"/>
<path d="M 470,1021 Z" fill="#c80000"/>
<path d="M 466,1020 L 466,1021 L 467,1020 Z" fill="#c80000"/>
<path d="M 497,1018 Z" fill="#c80000"/>
<path d="M 500,1016 L 500,1017 Z" fill="#c80000"/>
<path d="M 478,1013 Z" fill="#c80000"/>
<path d="M 511,1008 Z" fill="#c80000"/>
<path d="M 447,1003 L 447,1004 Z" fill="#c80000"/>
<path d="M 648,1002 Z" fill="#c80000"/>
<path d="M 425,1001 Z" fill="#c80000"/>
<path d="M 537,1000 Z" fill="#c80000"/>
<path d="M 545,995 L 545,996 L 546,996 Z" fill="#c80000"/>
<path d="M 451,995 L 452,995 Z" fill="#c80000"/>
<path d="M 528,994 Z" fill="#c80000"/>
<path d="M 422,993 L 422,994 L 423,994 L 423,993 Z" fill="#c80000"/>
<path d="M 593,990 Z" fill="#c80000"/>
<path d="M 637,989 L 639,989 Z" fill="#c80000"/>
<path d="M 455,986 L 455,987 L 456,987 L 456,986 Z" fill="#c80000"/>
<path d="M 553,984 L 554,984 Z" fill="#c80000"/>
<path d="M 467,984 L 467,985 L 468,985 L 469,986 L 468,987 L 466,987 L 465,986 L 464,987 L 463,986 L 462,987 L 461,986 L 460,986 L 459,987 L 458,987 L 458,988 L 460,990 L 460,991 L 461,991 L 465,995 L 465,998 L 466,998 L 467,999 L 468,999 L 469,1000 L 470,1000 L 471,1001 L 472,1001 L 473,1002 L 474,1002 L 475,1003 L 476,1003 L 477,1004 L 478,1004 L 479,1005 L 480,1005 L 481,1006 L 482,1006 L 484,1008 L 485,1008 L 487,1010 L 488,1010 L 489,1011 L 490,1011 L 491,1012 L 497,1012 L 498,1013 L 499,1012 L 502,1012 L 503,1011 L 504,1011 L 508,1007 L 508,1003 L 510,1001 L 510,998 L 511,997 L 512,997 L 512,994 L 508,990 L 506,990 L 505,989 L 504,989 L 503,988 L 500,988 L 499,987 L 496,987 L 495,986 L 494,986 L 493,985 L 484,985 L 483,984 Z" fill="#c80000"/>
<path d="M 529,982 L 528,983 L 527,983 L 526,984 L 526,986 L 527,987 L 529,987 L 530,986 L 530,983 Z" fill="#c80000"/>
<path d="M 443,981 L 442,982 L 443,983 L 444,983 L 445,982 L 444,981 Z" fill="#c80000"/>
<path d="M 490,980 L 490,981 Z" fill="#c80000"/>
<path d="M 477,980 L 477,981 L 478,981 Z" fill="#c80000"/>
<path d="M 463,980 L 463,981 L 464,981 L 464,980 Z" fill="#c80000"/>
<path d="M 504,979 L 504,980 Z" fill="#c80000"/>
<path d="M 499,978 L 499,979 L 501,979 L 500,978 Z" fill="#c80000"/>
<path d="M 571,973 Z" fill="#c80000"/>
<path d="M 511,967 Z" fill="#c80000"/>
<path d="M 667,965 L 668,966 L 668,965 Z" fill="#c80000"/>
<path d="M 447,964 Z" fill="#c80000"/>
<path d="M 554,962 L 554,963 L 556,963 L 555,962 Z" fill="#c80000"/>
<path d="M 600,961 L 596,965 L 595,965 L 595,966 L 594,967 L 593,967 L 586,974 L 585,974 L 581,978 L 580,978 L 576,982 L 575,982 L 571,986 L 570,986 L 566,990 L 565,990 L 564,989 L 566,987 L 564,989 L 563,989 L 559,993 L 557,993 L 557,994 L 556,995 L 553,995 L 551,997 L 550,997 L 548,999 L 547,999 L 546,1000 L 545,1000 L 543,1002 L 542,1002 L 540,1004 L 539,1004 L 537,1006 L 536,1006 L 535,1007 L 534,1007 L 533,1006 L 532,1006 L 531,1005 L 530,1006 L 532,1008 L 532,1009 L 531,1010 L 530,1010 L 529,1011 L 528,1011 L 527,1012 L 526,1012 L 525,1013 L 524,1013 L 522,1015 L 521,1015 L 520,1016 L 519,1016 L 518,1017 L 517,1017 L 516,1018 L 515,1018 L 514,1019 L 513,1019 L 512,1020 L 511,1020 L 510,1021 L 509,1021 L 508,1022 L 507,1022 L 505,1024 L 504,1024 L 503,1025 L 502,1025 L 501,1026 L 497,1026 L 496,1027 L 495,1027 L 494,1028 L 493,1028 L 492,1029 L 491,1029 L 490,1030 L 489,1030 L 488,1031 L 486,1031 L 485,1032 L 484,1032 L 483,1033 L 480,1033 L 479,1034 L 478,1034 L 477,1035 L 475,1035 L 474,1036 L 473,1036 L 472,1037 L 471,1036 L 470,1036 L 469,1035 L 468,1036 L 467,1035 L 466,1035 L 465,1034 L 461,1034 L 460,1033 L 456,1033 L 455,1032 L 453,1032 L 452,1031 L 452,1030 L 449,1030 L 447,1032 L 447,1033 L 446,1034 L 445,1034 L 446,1035 L 446,1036 L 447,1037 L 446,1038 L 444,1038 L 444,1039 L 445,1040 L 445,1041 L 444,1042 L 445,1043 L 445,1044 L 444,1045 L 444,1046 L 449,1051 L 450,1051 L 451,1052 L 452,1052 L 454,1054 L 455,1054 L 459,1058 L 460,1058 L 462,1060 L 462,1061 L 461,1062 L 462,1061 L 463,1061 L 464,1062 L 465,1062 L 466,1063 L 467,1063 L 468,1064 L 468,1065 L 473,1065 L 474,1066 L 476,1066 L 477,1067 L 485,1067 L 486,1066 L 487,1066 L 488,1065 L 489,1065 L 490,1064 L 491,1064 L 492,1063 L 492,1062 L 493,1061 L 494,1061 L 497,1058 L 499,1058 L 500,1057 L 502,1057 L 503,1056 L 504,1056 L 506,1054 L 508,1054 L 509,1053 L 510,1053 L 511,1052 L 512,1052 L 514,1050 L 515,1050 L 516,1049 L 517,1049 L 518,1048 L 519,1048 L 520,1047 L 521,1047 L 523,1045 L 524,1045 L 525,1044 L 526,1044 L 527,1043 L 528,1043 L 530,1041 L 531,1041 L 532,1040 L 533,1040 L 535,1038 L 536,1038 L 539,1035 L 540,1035 L 543,1032 L 544,1032 L 546,1030 L 547,1030 L 549,1028 L 550,1028 L 554,1024 L 555,1024 L 559,1020 L 560,1020 L 567,1013 L 566,1012 L 568,1010 L 569,1011 L 569,1012 L 569,1011 L 568,1010 L 575,1003 L 574,1003 L 572,1005 L 571,1005 L 570,1004 L 574,1000 L 574,999 L 576,997 L 577,997 L 584,990 L 584,989 L 583,990 L 582,990 L 581,989 L 585,985 L 585,984 L 590,979 L 590,978 L 589,977 L 591,975 L 592,976 L 593,976 L 592,976 L 591,975 L 594,972 L 594,971 L 595,970 L 595,969 L 594,968 L 596,966 L 596,965 L 597,964 L 598,964 L 598,963 Z" fill="#c80000"/>
<path d="M 421,960 L 421,962 L 423,962 L 423,960 Z" fill="#c80000"/>
<path d="M 624,957 L 624,958 L 625,958 L 625,957 Z" fill="#c80000"/>
<path d="M 542,957 Z" fill="#c80000"/>
<path d="M 582,956 L 582,957 L 583,957 L 583,956 Z" fill="#c80000"/>
<path d="M 652,955 L 653,956 L 654,955 Z" fill="#c80000"/>
<path d="M 632,951 L 632,953 L 634,953 L 634,952 L 633,951 Z" fill="#c80000"/>
<path d="M 531,951 Z" fill="#c80000"/>
<path d="M 653,950 L 654,950 Z" fill="#c80000"/>
<path d="M 416,948 Z" fill="#c80000"/>
<path d="M 544,946 Z" fill="#c80000"/>
<path d="M 397,946 Z" fill="#c80000"/>
<path d="M 602,945 L 601,946 L 601,947 L 603,949 L 604,948 L 605,948 L 605,947 L 603,945 Z" fill="#c80000"/>
<path d="M 587,944 L 587,946 L 588,947 L 591,947 L 591,945 L 590,944 Z" fill="#c80000"/>
<path d="M 438,942 L 439,942 Z" fill="#c80000"/>
<path d="M 641,940 L 640,941 L 639,941 L 639,942 L 641,944 L 642,944 L 643,943 L 643,941 L 642,940 Z" fill="#c80000"/>
<path d="M 473,940 L 472,941 L 474,943 L 474,940 Z" fill="#c80000"/>
<path d="M 465,939 Z" fill="#c80000"/>
<path d="M 474,935 Z" fill="#c80000"/>
<path d="M 412,935 L 412,936 L 413,936 L 413,935 Z" fill="#c80000"/>
<path d="M 618,934 L 616,936 L 619,939 L 620,939 L 621,938 L 622,938 L 623,937 L 623,936 L 621,934 Z" fill="#c80000"/>
<path d="M 640,933 L 641,934 L 641,933 Z" fill="#c80000"/>
<path d="M 560,933 L 560,935 L 561,935 L 561,933 Z" fill="#c80000"/>
<path d="M 410,933 Z" fill="#c80000"/>
<path d="M 628,932 Z" fill="#c80000"/>
<path d="M 468,932 L 468,933 Z" fill="#c80000"/>
<path d="M 491,931 L 491,932 L 492,932 Z" fill="#c80000"/>
<path d="M 449,930 L 450,930 Z" fill="#c80000"/>
<path d="M 568,929 Z" fill="#c80000"/>
<path d="M 593,927 L 593,928 L 592,929 L 593,930 L 594,930 L 595,929 L 595,928 L 594,927 Z" fill="#c80000"/>
<path d="M 617,926 L 617,927 L 618,927 L 618,926 Z" fill="#c80000"/>
<path d="M 435,924 L 435,925 Z" fill="#c80000"/>
<path d="M 609,916 L 610,917 L 610,916 Z" fill="#c80000"/>
<path d="M 596,911 Z" fill="#c80000"/>
<path d="M 650,910 Z" fill="#c80000"/>
<path d="M 440,910 Z" fill="#c80000"/>
<path d="M 608,909 L 610,909 Z" fill="#c80000"/>
<path d="M 593,909 L 592,910 L 593,910 Z" fill="#c80000"/>
<path d="M 520,909 L 521,909 Z" fill="#c80000"/>
<path d="M 655,908 Z" fill="#c80000"/>
<path d="M 580,907 L 579,908 L 578,908 L 578,909 Z" fill="#c80000"/>
<path d="M 616,905 L 615,906 L 614,906 L 614,908 L 615,909 L 615,911 L 616,911 L 616,910 L 618,908 L 618,906 L 617,905 Z" fill="#c80000"/>
<path d="M 628,904 L 627,905 L 627,906 L 625,908 L 623,906 L 622,906 L 620,908 L 620,909 L 621,910 L 623,910 L 624,911 L 624,915 L 625,916 L 625,917 L 626,917 L 627,918 L 627,919 L 628,920 L 629,920 L 630,919 L 632,919 L 633,920 L 635,920 L 636,919 L 637,919 L 638,918 L 638,916 L 639,915 L 640,915 L 641,914 L 641,911 L 640,910 L 639,910 L 638,909 L 639,908 L 639,907 L 638,906 L 639,905 L 638,904 L 637,905 L 636,905 L 635,906 L 633,904 L 632,905 L 630,905 L 629,904 Z" fill="#c80000"/>
<path d="M 644,902 L 644,903 L 645,903 L 645,902 Z" fill="#c80000"/>
<path d="M 621,901 L 623,901 Z" fill="#c80000"/>
<path d="M 513,901 L 513,902 Z" fill="#c80000"/>
<path d="M 436,901 L 436,902 Z" fill="#c80000"/>
<path d="M 518,900 Z" fill="#c80000"/>
<path d="M 474,896 L 473,897 L 465,897 L 464,898 L 462,898 L 461,899 L 458,899 L 460,899 L 461,900 L 460,901 L 459,901 L 458,902 L 456,902 L 455,901 L 454,901 L 453,902 L 452,902 L 452,903 L 453,903 L 454,904 L 455,904 L 458,907 L 458,908 L 461,911 L 461,912 L 462,912 L 463,913 L 464,913 L 465,914 L 467,914 L 468,915 L 470,915 L 471,916 L 473,916 L 474,917 L 477,917 L 478,918 L 480,918 L 481,919 L 483,919 L 484,920 L 485,920 L 486,921 L 487,921 L 488,922 L 492,922 L 493,921 L 495,921 L 496,920 L 497,920 L 500,917 L 500,916 L 501,915 L 501,914 L 503,912 L 503,909 L 502,908 L 502,905 L 501,904 L 501,903 L 498,900 L 497,900 L 495,898 L 491,898 L 490,897 L 483,897 L 482,896 Z" fill="#c80000"/>
<path d="M 526,894 Z" fill="#c80000"/>
<path d="M 506,893 L 505,894 L 506,894 Z" fill="#c80000"/>
<path d="M 649,888 L 648,889 L 649,889 Z" fill="#c80000"/>
<path d="M 525,888 L 526,888 Z" fill="#c80000"/>
<path d="M 627,885 L 626,886 L 627,886 Z" fill="#c80000"/>
<path d="M 477,884 Z" fill="#c80000"/>
<path d="M 537,881 Z" fill="#c80000"/>
<path d="M 582,876 L 581,877 L 580,877 L 580,878 L 576,882 L 575,882 L 572,885 L 571,885 L 571,886 L 570,887 L 569,887 L 568,888 L 567,888 L 566,887 L 558,895 L 556,895 L 555,896 L 554,896 L 550,900 L 549,900 L 546,903 L 545,903 L 542,906 L 541,906 L 537,910 L 536,910 L 532,914 L 531,914 L 528,917 L 527,917 L 525,919 L 524,919 L 522,921 L 521,921 L 520,922 L 519,922 L 517,924 L 516,924 L 515,925 L 514,925 L 512,927 L 511,927 L 509,929 L 508,929 L 507,930 L 506,930 L 504,932 L 503,932 L 502,933 L 501,933 L 500,934 L 499,934 L 498,935 L 497,935 L 496,936 L 495,936 L 493,938 L 491,938 L 490,939 L 489,939 L 487,941 L 486,941 L 485,942 L 484,942 L 483,943 L 481,943 L 480,944 L 479,944 L 478,943 L 477,943 L 475,945 L 472,945 L 471,946 L 465,946 L 464,947 L 466,949 L 465,950 L 464,950 L 464,953 L 463,954 L 461,954 L 460,955 L 460,956 L 462,956 L 464,958 L 464,960 L 463,961 L 464,962 L 465,962 L 466,963 L 467,963 L 470,966 L 471,966 L 472,967 L 473,967 L 475,969 L 476,969 L 478,971 L 481,971 L 482,972 L 481,973 L 481,974 L 482,974 L 484,972 L 487,972 L 488,971 L 493,971 L 494,970 L 496,970 L 498,968 L 499,968 L 500,967 L 501,967 L 503,965 L 504,965 L 506,963 L 507,963 L 509,961 L 510,961 L 512,959 L 513,959 L 514,958 L 515,958 L 517,956 L 518,956 L 519,955 L 520,955 L 522,953 L 523,953 L 524,952 L 525,952 L 527,950 L 528,950 L 531,947 L 532,947 L 536,943 L 537,943 L 542,938 L 543,938 L 547,934 L 548,934 L 555,927 L 556,927 L 561,922 L 562,922 L 562,921 L 563,920 L 564,920 L 565,919 L 565,918 L 564,917 L 566,915 L 566,914 L 567,913 L 568,913 L 568,912 L 571,909 L 572,909 L 572,908 L 575,905 L 575,904 L 576,903 L 576,902 L 577,901 L 578,901 L 577,901 L 575,903 L 574,903 L 571,906 L 570,906 L 564,912 L 563,912 L 558,917 L 557,917 L 554,920 L 553,920 L 552,919 L 556,915 L 557,915 L 567,905 L 568,905 L 575,898 L 575,897 L 578,894 L 577,893 L 577,892 L 578,891 L 578,890 L 578,891 L 577,892 L 576,892 L 569,899 L 568,899 L 567,898 L 576,889 L 576,888 L 579,885 L 579,884 L 578,883 L 582,879 L 581,879 L 580,878 Z" fill="#c80000"/>
<path d="M 556,876 Z" fill="#c80000"/>
<path d="M 528,874 L 528,875 Z" fill="#c80000"/>
<path d="M 546,870 Z" fill="#c80000"/>
<path d="M 635,867 Z" fill="#c80000"/>
<path d="M 469,863 L 468,864 L 468,865 L 469,866 L 470,866 L 472,868 L 473,868 L 474,869 L 473,870 L 469,870 L 469,871 L 475,877 L 476,877 L 477,878 L 478,878 L 479,879 L 480,879 L 481,880 L 482,880 L 483,881 L 485,881 L 486,882 L 487,882 L 488,883 L 489,883 L 490,884 L 491,884 L 492,885 L 493,885 L 494,886 L 495,886 L 496,887 L 497,887 L 500,890 L 501,890 L 502,891 L 509,891 L 510,890 L 511,890 L 518,883 L 518,882 L 520,880 L 520,876 L 519,875 L 519,872 L 517,870 L 516,870 L 513,867 L 513,865 L 511,865 L 510,866 L 507,866 L 506,865 L 505,865 L 504,864 L 477,864 L 476,865 L 475,865 L 473,863 Z" fill="#c80000"/>
<path d="M 523,861 Z" fill="#c80000"/>
<path d="M 595,858 L 595,859 Z" fill="#c80000"/>
<path d="M 531,858 Z" fill="#c80000"/>
<path d="M 506,858 L 506,861 L 507,860 L 506,859 Z" fill="#c80000"/>
<path d="M 468,852 L 468,853 Z" fill="#c80000"/>
<path d="M 415,851 Z" fill="#c80000"/>
<path d="M 410,851 Z" fill="#c80000"/>
<path d="M 526,849 L 526,850 L 527,850 L 527,849 Z" fill="#c80000"/>
<path d="M 517,849 L 516,850 L 516,851 L 519,851 L 519,850 L 518,849 Z" fill="#c80000"/>
<path d="M 609,846 Z" fill="#c80000"/>
<path d="M 605,841 Z" fill="#c80000"/>
<path d="M 425,841 Z" fill="#c80000"/>
<path d="M 485,837 L 485,838 Z" fill="#c80000"/>
<path d="M 564,835 Z" fill="#c80000"/>
<path d="M 596,832 L 596,833 Z" fill="#c80000"/>
<path d="M 505,828 Z" fill="#c80000"/>
<path d="M 574,826 Z" fill="#c80000"/>
<path d="M 591,825 L 591,826 Z" fill="#c80000"/>
<path d="M 560,822 Z" fill="#c80000"/>
<path d="M 592,818 L 592,819 L 593,819 L 593,818 Z" fill="#c80000"/>
<path d="M 563,817 L 563,818 Z" fill="#c80000"/>
<path d="M 578,799 Z" fill="#c80000"/>
<path d="M 578,795 L 577,796 L 577,797 L 579,797 L 579,796 Z" fill="#c80000"/>
<path d="M 621,787 L 621,788 L 622,787 Z" fill="#c80000"/>
<path d="M 610,786 Z" fill="#c80000"/>
<path d="M 498,781 Z" fill="#c80000"/>
<path d="M 593,780 L 592,781 L 592,782 L 593,783 L 594,782 L 594,781 Z" fill="#c80000"/>
<path d="M 624,767 Z" fill="#c80000"/>
<path d="M 412,763 L 412,764 L 413,765 L 414,764 L 414,763 Z" fill="#c80000"/>
<path d="M 607,758 L 607,760 Z" fill="#c80000"/>
<path d="M 634,749 L 634,750 L 635,749 Z" fill="#c80000"/>
<path d="M 596,749 Z" fill="#c80000"/>
<path d="M 471,748 L 470,749 L 470,751 L 469,752 L 466,752 L 465,753 L 464,753 L 463,754 L 463,758 L 465,760 L 465,761 L 468,764 L 468,774 L 467,775 L 467,782 L 466,783 L 466,788 L 465,789 L 465,791 L 464,792 L 464,794 L 463,795 L 463,797 L 462,798 L 462,799 L 461,800 L 461,802 L 460,803 L 460,804 L 459,805 L 459,807 L 458,808 L 458,809 L 456,811 L 456,812 L 455,813 L 455,814 L 452,817 L 452,818 L 439,831 L 438,831 L 435,834 L 434,834 L 430,838 L 429,838 L 428,839 L 429,839 L 430,838 L 431,838 L 432,837 L 433,837 L 434,836 L 435,836 L 436,835 L 437,835 L 438,834 L 439,834 L 440,833 L 441,833 L 442,832 L 443,832 L 444,831 L 445,831 L 446,832 L 446,833 L 445,834 L 444,834 L 441,837 L 440,837 L 439,838 L 438,838 L 436,840 L 435,840 L 433,842 L 432,842 L 431,843 L 430,843 L 429,844 L 428,844 L 426,846 L 424,846 L 429,846 L 430,845 L 431,845 L 432,844 L 435,844 L 436,843 L 437,843 L 438,844 L 439,843 L 440,843 L 441,842 L 444,842 L 449,837 L 450,837 L 451,836 L 452,836 L 455,833 L 456,833 L 460,829 L 461,829 L 468,822 L 469,822 L 474,817 L 474,816 L 477,813 L 477,812 L 478,811 L 478,810 L 480,808 L 480,807 L 483,804 L 483,803 L 484,802 L 484,801 L 485,800 L 485,798 L 487,796 L 487,794 L 488,793 L 488,792 L 489,791 L 489,789 L 490,788 L 490,786 L 491,785 L 491,784 L 492,783 L 492,781 L 493,780 L 493,779 L 495,777 L 495,775 L 496,774 L 496,773 L 497,772 L 497,771 L 498,770 L 498,764 L 497,763 L 497,762 L 496,761 L 496,760 L 495,759 L 495,758 L 493,756 L 493,755 L 492,755 L 491,754 L 490,754 L 488,752 L 485,752 L 484,751 L 481,751 L 480,750 L 476,750 L 475,749 L 474,749 L 473,748 Z" fill="#c80000"/>
<path d="M 442,748 L 442,749 L 443,750 L 443,748 Z" fill="#c80000"/>
<path d="M 411,748 Z" fill="#c80000"/>
<path d="M 580,747 L 580,750 L 582,750 L 580,748 Z" fill="#c80000"/>
<path d="M 577,747 Z" fill="#c80000"/>
<path d="M 477,742 Z" fill="#c80000"/>
<path d="M 510,737 L 510,738 L 508,740 L 507,740 L 506,741 L 505,741 L 504,742 L 502,742 L 501,743 L 501,744 L 500,745 L 501,746 L 501,747 L 503,749 L 503,750 L 505,750 L 506,751 L 506,752 L 507,753 L 507,758 L 508,759 L 508,762 L 509,763 L 509,797 L 510,798 L 509,799 L 509,800 L 510,801 L 510,806 L 509,807 L 509,808 L 508,809 L 508,810 L 507,811 L 506,811 L 506,812 L 505,813 L 505,815 L 509,819 L 509,820 L 514,825 L 515,825 L 517,827 L 517,828 L 519,830 L 520,830 L 522,832 L 524,832 L 525,833 L 529,833 L 530,832 L 533,832 L 534,831 L 535,831 L 536,830 L 537,830 L 539,828 L 540,828 L 542,826 L 544,826 L 568,802 L 568,801 L 574,795 L 574,794 L 578,790 L 578,789 L 580,787 L 580,786 L 582,784 L 582,783 L 584,781 L 584,780 L 581,783 L 580,782 L 580,781 L 582,779 L 582,778 L 584,776 L 584,775 L 585,774 L 585,773 L 587,771 L 587,770 L 590,767 L 590,766 L 592,764 L 592,763 L 594,761 L 593,762 L 592,762 L 590,764 L 589,763 L 589,762 L 590,761 L 590,759 L 591,758 L 591,757 L 592,756 L 592,754 L 595,751 L 594,752 L 593,752 L 592,751 L 593,750 L 593,749 L 595,747 L 595,746 L 597,744 L 597,742 L 599,740 L 599,739 L 600,738 L 600,737 L 596,741 L 596,742 L 592,746 L 592,747 L 588,751 L 588,752 L 578,762 L 577,762 L 576,761 L 579,758 L 577,758 L 576,759 L 576,760 L 574,762 L 574,763 L 568,769 L 567,769 L 567,770 L 554,783 L 553,783 L 540,796 L 539,796 L 538,797 L 537,797 L 536,798 L 535,798 L 534,797 L 534,763 L 535,762 L 535,756 L 536,755 L 536,754 L 537,753 L 537,751 L 538,750 L 538,749 L 535,746 L 535,745 L 533,743 L 532,743 L 531,742 L 530,742 L 529,741 L 528,741 L 527,740 L 525,740 L 524,739 L 522,739 L 521,738 L 511,738 Z" fill="#c80000"/>
<path d="M 567,736 L 568,736 Z" fill="#c80000"/>
<path d="M 580,735 Z" fill="#c80000"/>
<path d="M 510,731 Z" fill="#c80000"/>
<path d="M 532,715 L 534,717 L 535,716 L 534,716 L 533,715 Z" fill="#c80000"/>
<path d="M 645,713 Z" fill="#c80000"/>
<path d="M 550,712 L 550,713 L 551,713 L 551,712 Z" fill="#c80000"/>
<path d="M 557,711 Z" fill="#c80000"/>
<path d="M 568,710 Z" fill="#c80000"/>
<path d="M 425,709 Z" fill="#c80000"/>
<path d="M 457,706 L 458,706 Z" fill="#c80000"/>
<path d="M 562,705 L 563,705 Z" fill="#c80000"/>
<path d="M 373,702 Z" fill="#c80000"/>
<path d="M 567,698 Z" fill="#c80000"/>
<path d="M 411,698 L 411,699 Z" fill="#c80000"/>
<path d="M 605,696 Z" fill="#c80000"/>
<path d="M 398,696 Z" fill="#c80000"/>
<path d="M 529,694 Z" fill="#c80000"/>
<path d="M 565,693 Z" fill="#c80000"/>
<path d="M 554,692 L 553,693 L 554,693 Z" fill="#c80000"/>
<path d="M 400,691 L 401,691 Z" fill="#c80000"/>
<path d="M 605,690 L 605,691 L 606,690 Z" fill="#c80000"/>
<path d="M 413,690 Z" fill="#c80000"/>
<path d="M 523,687 Z" fill="#c80000"/>
<path d="M 555,685 Z" fill="#c80000"/>
<path d="M 395,684 L 395,685 Z" fill="#c80000"/>
<path d="M 369,681 L 369,682 L 370,682 L 370,681 Z" fill="#c80000"/>
<path d="M 558,680 Z" fill="#c80000"/>
<path d="M 526,680 L 526,681 L 527,681 L 527,680 Z" fill="#c80000"/>
<path d="M 585,677 L 586,677 Z" fill="#c80000"/>
<path d="M 559,676 Z" fill="#c80000"/>
<path d="M 407,676 L 405,678 L 404,678 L 404,683 L 406,685 L 412,685 L 412,684 L 413,683 L 414,683 L 414,679 L 412,677 L 412,676 Z" fill="#c80000"/>
<path d="M 547,675 Z" fill="#c80000"/>
<path d="M 581,671 L 580,672 L 581,672 L 582,671 Z" fill="#c80000"/>
<path d="M 529,671 Z" fill="#c80000"/>
<path d="M 529,669 Z" fill="#c80000"/>
<path d="M 346,669 Z" fill="#c80000"/>
<path d="M 437,668 Z" fill="#c80000"/>
<path d="M 574,664 Z" fill="#c80000"/>
<path d="M 526,664 L 525,665 L 527,665 L 527,664 Z" fill="#c80000"/>
<path d="M 389,664 L 389,666 L 391,666 L 392,665 L 392,664 Z" fill="#c80000"/>
<path d="M 473,663 L 473,665 L 475,665 L 475,663 Z" fill="#c80000"/>
<path d="M 502,660 L 501,661 L 501,662 L 500,663 L 498,663 L 498,664 L 499,665 L 500,665 L 501,666 L 500,667 L 496,667 L 495,668 L 494,668 L 493,667 L 492,668 L 490,668 L 489,669 L 488,668 L 487,668 L 486,669 L 484,669 L 483,670 L 482,670 L 481,671 L 481,673 L 485,677 L 486,677 L 489,680 L 489,681 L 491,683 L 491,684 L 492,685 L 492,687 L 493,688 L 493,689 L 492,690 L 492,691 L 493,692 L 492,693 L 492,695 L 493,696 L 492,697 L 493,698 L 493,704 L 492,705 L 492,729 L 491,730 L 491,731 L 490,732 L 490,734 L 489,735 L 489,736 L 488,737 L 489,736 L 489,735 L 490,734 L 491,735 L 492,735 L 494,733 L 495,733 L 496,734 L 497,734 L 497,733 L 499,731 L 500,732 L 500,733 L 501,733 L 504,730 L 504,729 L 507,726 L 508,727 L 508,728 L 513,723 L 514,723 L 515,722 L 515,721 L 516,720 L 516,719 L 517,718 L 517,716 L 518,715 L 518,713 L 519,712 L 519,709 L 520,708 L 520,701 L 519,700 L 519,695 L 520,694 L 520,691 L 518,689 L 519,688 L 519,686 L 518,685 L 518,682 L 519,681 L 520,682 L 521,681 L 521,678 L 522,677 L 522,672 L 521,671 L 521,670 L 519,668 L 519,667 L 515,663 L 514,663 L 513,662 L 512,662 L 511,661 L 507,661 L 506,660 Z" fill="#c80000"/>
<path d="M 564,659 Z" fill="#c80000"/>
<path d="M 432,658 Z" fill="#c80000"/>
<path d="M 567,657 L 568,658 L 568,657 Z" fill="#c80000"/>
<path d="M 492,653 Z" fill="#c80000"/>
<path d="M 561,650 Z" fill="#c80000"/>
<path d="M 358,648 L 358,649 L 359,649 L 359,648 Z" fill="#c80000"/>
<path d="M 414,644 L 413,645 L 414,646 L 417,646 L 418,645 L 417,644 Z" fill="#c80000"/>
<path d="M 575,639 L 575,641 Z" fill="#c80000"/>
<path d="M 386,638 L 385,639 L 382,639 L 381,640 L 381,641 L 379,643 L 379,646 L 380,647 L 380,650 L 381,651 L 382,651 L 383,652 L 389,652 L 390,651 L 391,651 L 392,650 L 392,649 L 393,648 L 393,647 L 394,646 L 393,645 L 393,644 L 394,643 L 393,642 L 392,642 L 391,641 L 391,640 L 390,639 L 389,640 L 388,639 L 387,639 Z" fill="#c80000"/>
<path d="M 457,637 L 457,638 Z" fill="#c80000"/>
<path d="M 444,637 Z" fill="#c80000"/>
<path d="M 384,635 L 385,636 L 386,635 L 387,635 Z" fill="#c80000"/>
<path d="M 467,633 Z" fill="#c80000"/>
<path d="M 589,631 L 589,633 L 590,633 L 591,632 L 590,631 Z" fill="#c80000"/>
<path d="M 426,628 Z" fill="#c80000"/>
<path d="M 566,626 Z" fill="#c80000"/>
<path d="M 373,625 L 374,625 Z" fill="#c80000"/>
<path d="M 510,624 L 510,626 Z" fill="#c80000"/>
<path d="M 421,620 L 421,621 Z" fill="#c80000"/>
<path d="M 399,619 L 398,620 L 398,621 L 399,622 L 400,622 L 400,621 L 401,620 L 400,619 Z" fill="#c80000"/>
<path d="M 620,614 L 621,614 Z" fill="#c80000"/>
<path d="M 583,607 L 584,608 L 584,609 L 584,607 Z" fill="#c80000"/>
<path d="M 551,600 L 550,601 L 545,601 L 544,602 L 543,602 L 542,603 L 541,603 L 540,604 L 540,605 L 541,605 L 543,607 L 543,608 L 542,609 L 542,610 L 536,616 L 535,616 L 531,620 L 530,620 L 527,623 L 526,623 L 524,625 L 523,625 L 521,627 L 520,627 L 519,628 L 518,628 L 516,630 L 515,630 L 513,632 L 512,632 L 511,633 L 510,633 L 509,634 L 508,634 L 507,635 L 506,635 L 504,637 L 503,637 L 502,638 L 501,638 L 500,639 L 499,639 L 498,640 L 497,640 L 495,642 L 495,643 L 496,644 L 497,643 L 501,643 L 502,644 L 503,644 L 504,643 L 511,643 L 512,642 L 516,642 L 517,641 L 518,641 L 519,640 L 521,640 L 522,639 L 523,639 L 524,638 L 526,638 L 527,637 L 528,637 L 529,636 L 531,636 L 532,637 L 532,639 L 533,640 L 533,660 L 532,661 L 532,666 L 533,667 L 534,667 L 535,668 L 536,668 L 537,667 L 542,667 L 543,666 L 544,666 L 545,665 L 549,665 L 550,664 L 550,660 L 551,659 L 551,636 L 547,632 L 546,632 L 544,630 L 544,629 L 547,626 L 548,626 L 551,623 L 552,623 L 554,621 L 555,621 L 559,617 L 562,617 L 563,616 L 564,616 L 566,614 L 567,614 L 567,613 L 569,611 L 569,610 L 567,608 L 567,607 L 565,605 L 564,605 L 562,603 L 558,603 L 556,601 L 553,601 L 552,600 Z" fill="#c80000"/>
<path d="M 543,594 L 544,594 Z" fill="#c80000"/>
<path d="M 399,590 L 400,590 Z" fill="#c80000"/>
<path d="M 578,579 L 579,579 Z" fill="#c80000"/>
<path d="M 585,578 Z" fill="#c80000"/>
<path d="M 593,574 Z" fill="#c80000"/>
<path d="M 559,573 L 559,574 L 560,574 L 560,573 Z" fill="#c80000"/>
<path d="M 565,572 L 565,573 L 566,573 L 566,572 Z" fill="#c80000"/>
<path d="M 384,551 Z" fill="#c80000"/>
<path d="M 479,550 Z" fill="#c80000"/>
<path d="M 473,547 L 472,548 L 472,550 L 473,551 L 474,551 L 475,550 L 475,548 L 474,548 Z" fill="#c80000"/>
<path d="M 450,540 Z" fill="#c80000"/>
<path d="M 536,534 L 536,535 Z" fill="#c80000"/>
<path d="M 492,529 L 492,530 Z" fill="#c80000"/>
<path d="M 506,527 L 506,528 L 507,529 L 506,530 L 506,532 L 507,533 L 507,534 L 508,535 L 508,537 L 506,539 L 506,540 L 505,541 L 504,541 L 502,539 L 501,539 L 499,537 L 498,537 L 497,536 L 496,536 L 495,535 L 493,535 L 491,533 L 489,533 L 488,532 L 488,531 L 487,531 L 487,533 L 485,535 L 485,536 L 484,537 L 484,538 L 485,539 L 485,540 L 486,541 L 486,542 L 491,547 L 491,548 L 494,551 L 492,553 L 489,553 L 488,554 L 481,554 L 480,555 L 476,555 L 475,554 L 474,554 L 473,553 L 472,553 L 470,551 L 469,551 L 468,550 L 467,550 L 466,549 L 464,549 L 463,548 L 462,548 L 460,550 L 459,550 L 457,548 L 451,548 L 450,549 L 449,548 L 448,549 L 444,549 L 441,552 L 441,554 L 439,556 L 439,557 L 440,558 L 440,559 L 441,560 L 443,560 L 447,564 L 447,565 L 449,567 L 449,568 L 450,569 L 450,570 L 451,571 L 451,572 L 452,573 L 452,574 L 453,575 L 453,576 L 454,577 L 454,578 L 455,579 L 455,580 L 456,581 L 456,582 L 457,583 L 457,584 L 463,590 L 466,590 L 467,591 L 469,591 L 470,590 L 471,590 L 472,589 L 473,589 L 474,588 L 476,588 L 477,587 L 478,587 L 479,586 L 480,586 L 481,585 L 482,585 L 486,581 L 486,580 L 485,579 L 485,577 L 484,576 L 484,574 L 486,572 L 487,572 L 488,571 L 489,571 L 490,570 L 492,570 L 493,569 L 495,569 L 496,568 L 498,568 L 499,567 L 501,567 L 502,566 L 505,566 L 506,565 L 509,565 L 510,564 L 513,564 L 514,563 L 517,563 L 518,562 L 522,562 L 523,561 L 525,561 L 526,562 L 526,564 L 525,565 L 525,567 L 524,568 L 524,570 L 523,571 L 523,573 L 522,574 L 522,575 L 521,576 L 521,577 L 520,578 L 520,579 L 518,581 L 518,582 L 517,583 L 517,584 L 515,586 L 515,587 L 514,588 L 514,589 L 512,591 L 512,592 L 507,597 L 507,598 L 493,612 L 492,612 L 485,619 L 484,619 L 481,622 L 482,622 L 483,623 L 479,627 L 478,627 L 477,628 L 476,628 L 474,630 L 473,630 L 472,631 L 471,631 L 470,632 L 471,631 L 472,631 L 473,630 L 475,630 L 477,628 L 479,628 L 480,627 L 481,627 L 483,625 L 484,625 L 486,623 L 487,623 L 488,622 L 489,622 L 490,621 L 491,622 L 491,623 L 490,624 L 491,623 L 492,623 L 493,622 L 494,622 L 496,620 L 497,620 L 498,619 L 499,619 L 500,618 L 501,618 L 502,617 L 503,618 L 504,617 L 505,617 L 507,615 L 508,615 L 511,612 L 513,612 L 516,609 L 517,609 L 522,604 L 524,604 L 525,603 L 526,603 L 539,590 L 539,589 L 541,587 L 541,586 L 543,584 L 543,583 L 545,581 L 545,580 L 547,578 L 547,577 L 549,575 L 549,574 L 551,572 L 551,571 L 552,570 L 552,569 L 553,568 L 553,567 L 554,566 L 554,565 L 557,562 L 558,562 L 559,561 L 559,560 L 560,559 L 558,557 L 558,555 L 557,555 L 556,554 L 556,553 L 548,545 L 547,545 L 545,543 L 544,543 L 543,542 L 542,542 L 541,541 L 535,541 L 531,545 L 525,545 L 524,546 L 521,546 L 520,547 L 518,547 L 517,546 L 518,545 L 519,545 L 520,544 L 521,544 L 522,543 L 523,543 L 524,542 L 525,542 L 525,540 L 526,539 L 526,537 L 521,532 L 520,532 L 518,530 L 517,531 L 514,528 L 513,529 L 512,529 L 511,528 L 509,528 L 508,527 Z" fill="#c80000"/>
<path d="M 453,527 Z" fill="#c80000"/>
<path d="M 526,522 L 526,523 L 527,523 L 528,524 L 528,525 L 528,524 L 527,523 L 527,522 Z" fill="#c80000"/>
<path d="M 593,518 Z" fill="#c80000"/>
<path d="M 558,518 L 558,519 L 562,523 L 562,525 L 564,527 L 564,528 L 565,529 L 565,530 L 564,531 L 562,529 L 561,529 L 559,527 L 558,527 L 557,526 L 554,526 L 553,525 L 548,525 L 547,524 L 546,525 L 544,525 L 543,524 L 543,523 L 542,523 L 541,524 L 539,524 L 538,523 L 535,523 L 538,526 L 539,526 L 543,530 L 543,531 L 546,534 L 546,535 L 548,537 L 548,538 L 549,539 L 549,540 L 550,541 L 550,542 L 551,543 L 551,544 L 552,545 L 553,545 L 554,546 L 556,546 L 557,545 L 558,546 L 559,546 L 559,545 L 560,544 L 563,544 L 564,543 L 564,542 L 566,540 L 566,539 L 567,538 L 568,538 L 569,539 L 570,539 L 571,540 L 573,540 L 574,539 L 579,539 L 580,538 L 582,538 L 583,537 L 583,536 L 584,535 L 584,533 L 583,532 L 584,531 L 583,530 L 583,529 L 580,526 L 580,525 L 578,523 L 577,523 L 575,521 L 574,521 L 573,520 L 572,520 L 571,519 L 562,519 L 561,518 Z" fill="#c80000"/>
<path d="M 454,518 Z" fill="#c80000"/>
<path d="M 550,513 L 551,514 L 551,513 Z" fill="#c80000"/>
<path d="M 489,504 L 489,505 Z" fill="#c80000"/>
<path d="M 474,503 L 473,504 L 474,505 L 474,506 L 475,507 L 477,507 L 478,506 L 478,504 L 477,503 Z" fill="#c80000"/>
<path d="M 497,502 L 497,503 L 498,503 L 499,502 Z" fill="#c80000"/>
<path d="M 592,497 Z" fill="#c80000"/>
<path d="M 523,497 Z" fill="#c80000"/>
<path d="M 516,471 L 517,471 Z" fill="#c80000"/>
<path d="M 505,470 L 504,471 L 505,472 L 506,472 L 506,471 Z" fill="#c80000"/>
<path d="M 535,462 L 534,463 L 533,463 L 532,464 L 533,465 L 533,467 L 530,470 L 529,470 L 527,472 L 526,472 L 525,473 L 524,473 L 522,475 L 521,475 L 520,476 L 518,476 L 516,478 L 513,478 L 512,479 L 510,479 L 509,480 L 508,480 L 507,479 L 503,479 L 502,478 L 500,478 L 499,477 L 497,477 L 496,478 L 496,480 L 497,481 L 498,481 L 499,482 L 499,483 L 500,484 L 500,485 L 502,487 L 502,488 L 504,490 L 505,490 L 507,492 L 512,492 L 514,494 L 514,493 L 513,492 L 515,490 L 517,490 L 518,489 L 520,489 L 521,488 L 522,488 L 523,487 L 525,487 L 526,486 L 527,486 L 528,485 L 530,485 L 531,484 L 532,484 L 533,485 L 532,486 L 532,489 L 531,490 L 531,492 L 530,493 L 530,494 L 529,495 L 529,496 L 528,497 L 528,498 L 527,499 L 527,500 L 524,503 L 522,503 L 521,504 L 519,504 L 518,505 L 515,505 L 514,506 L 511,506 L 510,507 L 507,507 L 506,508 L 503,508 L 502,509 L 497,509 L 496,510 L 490,510 L 489,509 L 488,510 L 487,509 L 480,509 L 478,511 L 478,512 L 479,513 L 479,514 L 484,519 L 484,520 L 485,521 L 486,521 L 489,524 L 490,524 L 491,525 L 493,525 L 494,526 L 495,526 L 496,525 L 503,525 L 504,524 L 506,524 L 507,523 L 509,523 L 510,522 L 511,522 L 512,521 L 514,521 L 515,520 L 517,520 L 518,519 L 521,519 L 522,518 L 524,518 L 525,517 L 527,517 L 528,516 L 529,516 L 530,515 L 533,515 L 534,514 L 536,514 L 537,513 L 539,513 L 540,512 L 542,512 L 543,511 L 547,511 L 548,510 L 551,510 L 552,509 L 555,509 L 556,508 L 561,508 L 562,507 L 578,507 L 579,508 L 581,508 L 582,509 L 584,507 L 584,506 L 585,505 L 585,501 L 584,500 L 584,498 L 582,498 L 581,497 L 580,497 L 578,495 L 577,495 L 575,493 L 574,493 L 573,492 L 570,492 L 569,491 L 562,491 L 561,492 L 559,492 L 557,494 L 554,494 L 553,495 L 550,495 L 549,496 L 548,496 L 547,495 L 548,494 L 548,493 L 549,492 L 549,490 L 550,489 L 550,485 L 551,484 L 551,476 L 552,475 L 553,475 L 554,474 L 555,474 L 555,473 L 556,472 L 556,471 L 555,470 L 555,469 L 553,467 L 551,467 L 549,465 L 547,465 L 546,464 L 544,464 L 543,463 L 540,463 L 539,462 Z" fill="#c80000"/>
<path d="M 528,462 L 527,463 L 527,464 L 529,464 L 529,463 Z" fill="#c80000"/>
<path d="M 529,454 L 528,455 L 529,455 Z" fill="#c80000"/>
<path d="M 471,442 L 471,444 L 472,444 L 473,443 L 472,442 Z" fill="#c80000"/>
<path d="M 492,435 L 492,436 L 493,436 L 493,435 Z" fill="#c80000"/>
<path d="M 440,434 Z" fill="#c80000"/>
<path d="M 499,432 L 499,433 Z" fill="#c80000"/>
<path d="M 493,430 L 494,431 L 494,430 Z" fill="#c80000"/>
<path d="M 460,420 L 459,421 L 460,422 Z" fill="#c80000"/>
<path d="M 514,416 Z" fill="#c80000"/>
<path d="M 510,416 Z" fill="#c80000"/>
<path d="M 509,414 Z" fill="#c80000"/>
<path d="M 587,410 L 587,411 L 586,412 L 588,414 L 589,413 L 590,413 L 590,410 Z" fill="#c80000"/>
<path d="M 519,408 L 519,409 L 520,409 L 520,408 Z" fill="#c80000"/>
<path d="M 532,405 Z" fill="#c80000"/>
<path d="M 522,401 L 523,402 L 524,401 Z" fill="#c80000"/>
<path d="M 500,401 L 499,402 L 500,402 L 501,401 Z" fill="#c80000"/>
<path d="M 473,401 L 472,402 L 465,402 L 464,403 L 463,403 L 462,404 L 459,404 L 458,405 L 457,405 L 456,406 L 453,406 L 452,407 L 451,407 L 451,408 L 450,409 L 451,410 L 453,410 L 454,411 L 455,411 L 457,413 L 456,414 L 455,414 L 455,415 L 456,415 L 457,416 L 458,416 L 460,418 L 461,418 L 462,419 L 464,419 L 465,420 L 466,420 L 467,421 L 469,421 L 470,422 L 473,422 L 474,423 L 476,423 L 477,424 L 480,424 L 481,425 L 482,425 L 483,426 L 484,426 L 485,427 L 486,427 L 487,428 L 488,428 L 489,427 L 492,427 L 493,426 L 494,426 L 496,424 L 497,424 L 500,421 L 501,422 L 502,422 L 501,421 L 501,419 L 502,418 L 502,416 L 501,415 L 502,414 L 502,413 L 501,412 L 501,409 L 498,406 L 497,406 L 494,403 L 490,403 L 489,402 L 483,402 L 482,401 Z" fill="#c80000"/>
<path d="M 639,397 Z" fill="#c80000"/>
<path d="M 528,397 Z" fill="#c80000"/>
<path d="M 545,395 L 545,397 L 546,398 L 546,396 Z" fill="#c80000"/>
<path d="M 601,391 L 601,392 L 602,392 L 602,391 Z" fill="#c80000"/>
<path d="M 483,391 L 483,392 Z" fill="#c80000"/>
<path d="M 430,391 L 429,392 L 430,392 Z" fill="#c80000"/>
<path d="M 531,390 L 531,391 Z" fill="#c80000"/>
<path d="M 554,389 L 554,390 Z" fill="#c80000"/>
<path d="M 431,388 L 431,389 Z" fill="#c80000"/>
<path d="M 606,386 Z" fill="#c80000"/>
<path d="M 544,384 L 544,385 Z" fill="#c80000"/>
<path d="M 581,380 L 580,381 L 580,382 L 577,385 L 576,385 L 576,387 L 575,388 L 574,388 L 567,395 L 566,395 L 563,398 L 562,397 L 562,396 L 567,391 L 566,391 L 564,393 L 563,393 L 562,394 L 561,394 L 559,396 L 558,396 L 557,397 L 556,397 L 554,399 L 553,399 L 548,404 L 547,404 L 544,407 L 543,407 L 540,410 L 539,410 L 535,414 L 534,414 L 531,417 L 530,417 L 528,419 L 527,419 L 525,421 L 524,421 L 522,423 L 521,423 L 519,425 L 518,425 L 516,427 L 515,427 L 514,428 L 513,428 L 511,430 L 510,430 L 508,432 L 507,432 L 506,433 L 505,433 L 503,435 L 502,435 L 501,436 L 500,436 L 498,438 L 497,438 L 496,439 L 495,439 L 494,440 L 493,440 L 492,441 L 491,441 L 489,443 L 488,443 L 487,444 L 486,444 L 485,445 L 484,445 L 483,446 L 482,446 L 481,447 L 479,447 L 478,448 L 475,448 L 474,449 L 471,449 L 470,450 L 462,450 L 461,451 L 460,451 L 460,452 L 461,452 L 462,453 L 462,457 L 461,458 L 459,458 L 458,459 L 457,459 L 457,460 L 458,460 L 464,466 L 464,468 L 461,471 L 462,472 L 463,472 L 464,471 L 464,470 L 465,469 L 467,469 L 468,470 L 469,470 L 470,471 L 472,471 L 474,473 L 475,472 L 476,472 L 477,473 L 479,473 L 480,474 L 487,474 L 488,473 L 492,473 L 493,472 L 494,472 L 495,471 L 496,471 L 497,472 L 497,471 L 499,469 L 500,469 L 501,468 L 502,468 L 503,467 L 504,467 L 507,464 L 508,464 L 509,463 L 510,463 L 512,461 L 513,461 L 515,459 L 516,459 L 518,457 L 519,457 L 520,456 L 521,456 L 523,454 L 524,454 L 525,453 L 526,453 L 528,451 L 529,451 L 531,449 L 532,449 L 536,445 L 537,445 L 539,443 L 540,443 L 545,438 L 546,438 L 551,433 L 552,433 L 559,426 L 560,426 L 566,420 L 566,419 L 569,416 L 569,415 L 571,413 L 571,412 L 574,409 L 573,409 L 572,410 L 571,409 L 571,408 L 577,402 L 578,402 L 578,401 L 577,402 L 576,402 L 574,404 L 573,404 L 572,405 L 571,404 L 571,403 L 582,392 L 582,391 L 583,390 L 582,389 L 578,393 L 577,393 L 570,400 L 569,400 L 568,399 L 576,391 L 576,390 L 577,389 L 577,388 L 580,385 L 580,383 L 581,382 L 582,382 L 581,381 Z" fill="#c80000"/>
<path d="M 572,379 L 572,381 L 573,380 Z" fill="#c80000"/>
<path d="M 428,379 Z" fill="#c80000"/>
<path d="M 584,376 Z" fill="#c80000"/>
<path d="M 618,375 L 619,376 L 619,375 Z" fill="#c80000"/>
<path d="M 542,375 Z" fill="#c80000"/>
<path d="M 522,374 Z" fill="#c80000"/>
<path d="M 583,371 L 582,372 L 583,372 Z" fill="#c80000"/>
<path d="M 515,371 L 516,371 Z" fill="#c80000"/>
<path d="M 485,371 L 484,372 L 478,372 L 477,373 L 476,373 L 475,372 L 474,373 L 469,373 L 469,374 L 470,374 L 472,376 L 473,376 L 474,377 L 473,378 L 468,378 L 468,379 L 471,382 L 472,382 L 475,385 L 476,385 L 477,386 L 478,386 L 479,387 L 480,387 L 481,388 L 483,388 L 484,389 L 485,389 L 486,390 L 487,390 L 488,391 L 489,391 L 490,392 L 491,392 L 492,393 L 493,393 L 494,394 L 495,394 L 496,395 L 497,395 L 499,397 L 500,397 L 501,398 L 509,398 L 510,397 L 511,397 L 512,396 L 513,396 L 517,392 L 517,391 L 519,389 L 519,388 L 520,387 L 520,382 L 519,381 L 519,380 L 516,377 L 514,377 L 513,376 L 512,376 L 511,375 L 510,375 L 509,374 L 507,374 L 506,373 L 502,373 L 501,372 L 492,372 L 491,371 Z" fill="#c80000"/>
<path d="M 510,369 L 510,370 L 511,370 L 511,369 Z" fill="#c80000"/>
<path d="M 528,367 Z" fill="#c80000"/>
<path d="M 531,366 Z" fill="#c80000"/>
<path d="M 524,366 L 523,367 L 524,368 Z" fill="#c80000"/>
<path d="M 486,366 L 486,367 L 487,367 L 488,366 Z" fill="#c80000"/>
<path d="M 566,362 Z" fill="#c80000"/>
<path d="M 497,362 Z" fill="#c80000"/>
<path d="M 503,360 L 504,361 L 504,360 Z" fill="#c80000"/>
<path d="M 564,359 L 565,359 Z" fill="#c80000"/>
<path d="M 601,355 L 601,357 L 602,358 L 603,357 L 603,355 Z" fill="#c80000"/>
<path d="M 562,355 L 562,356 L 563,355 Z" fill="#c80000"/>
<path d="M 569,354 L 570,354 Z" fill="#c80000"/>
<path d="M 611,349 L 611,350 Z" fill="#c80000"/>
<path d="M 596,349 L 596,350 L 597,350 L 597,349 Z" fill="#c80000"/>
<path d="M 605,347 L 606,347 Z" fill="#c80000"/>
<path d="M 596,343 L 596,344 L 597,344 Z" fill="#c80000"/>
<path d="M 574,342 Z" fill="#c80000"/>
<path d="M 585,339 Z" fill="#c80000"/>
<path d="M 583,339 Z" fill="#c80000"/>
<path d="M 578,339 L 577,340 L 578,340 Z" fill="#c80000"/>
<path d="M 563,339 L 564,339 Z" fill="#c80000"/>
<path d="M 499,339 Z" fill="#c80000"/>
<path d="M 567,338 L 567,340 L 568,340 L 568,339 Z" fill="#c80000"/>
<path d="M 626,337 L 626,338 Z" fill="#c80000"/>
<path d="M 621,337 Z" fill="#c80000"/>
<path d="M 500,334 L 500,335 Z" fill="#c80000"/>
<path d="M 610,333 Z" fill="#c80000"/>
<path d="M 574,332 L 574,333 Z" fill="#c80000"/>
<path d="M 644,322 L 644,323 L 645,322 Z" fill="#c80000"/>
<path d="M 607,322 L 605,324 L 605,325 L 604,326 L 605,327 L 605,328 L 606,329 L 606,330 L 607,330 L 608,331 L 609,331 L 610,330 L 612,330 L 613,329 L 613,324 L 612,324 L 611,323 L 611,322 Z" fill="#c80000"/>
<path d="M 543,320 L 543,322 Z" fill="#c80000"/>
<path d="M 581,319 L 580,320 L 580,322 L 582,322 L 583,321 L 583,320 L 582,319 Z" fill="#c80000"/>
<path d="M 589,317 L 589,319 L 590,319 L 590,317 Z" fill="#c80000"/>
<path d="M 546,316 L 546,317 L 547,317 L 547,316 Z" fill="#c80000"/>
<path d="M 591,314 L 590,315 Z" fill="#c80000"/>
<path d="M 608,310 Z" fill="#c80000"/>
<path d="M 555,309 Z" fill="#c80000"/>
<path d="M 535,308 L 535,309 L 536,310 L 537,310 L 537,308 Z" fill="#c80000"/>
<path d="M 648,307 L 649,308 L 649,307 Z" fill="#c80000"/>
<path d="M 612,307 Z" fill="#c80000"/>
<path d="M 543,305 L 543,307 L 544,307 L 544,305 Z" fill="#c80000"/>
<path d="M 639,304 Z" fill="#c80000"/>
<path d="M 602,304 Z" fill="#c80000"/>
<path d="M 655,302 Z" fill="#c80000"/>
<path d="M 562,299 L 562,300 L 563,299 Z" fill="#c80000"/>
<path d="M 559,299 L 560,299 Z" fill="#c80000"/>
<path d="M 546,297 L 546,298 Z" fill="#c80000"/>
<path d="M 595,296 L 594,297 L 593,297 L 593,299 L 595,301 L 597,299 L 597,297 L 596,297 Z" fill="#c80000"/>
<path d="M 570,294 L 570,295 L 572,295 L 571,294 Z" fill="#c80000"/>
<path d="M 632,293 L 631,294 L 630,294 L 630,295 L 632,295 Z" fill="#c80000"/>
<path d="M 476,292 L 475,293 L 468,293 L 467,294 L 466,294 L 465,295 L 464,294 L 461,294 L 459,296 L 458,296 L 458,300 L 457,301 L 459,303 L 460,303 L 461,304 L 462,304 L 463,305 L 463,306 L 464,307 L 463,308 L 463,327 L 462,328 L 462,333 L 461,334 L 461,337 L 460,338 L 460,340 L 459,341 L 459,343 L 458,344 L 458,345 L 457,346 L 457,347 L 456,348 L 456,349 L 455,350 L 455,351 L 454,352 L 454,353 L 452,355 L 452,356 L 450,358 L 450,359 L 447,362 L 447,363 L 436,374 L 435,374 L 432,377 L 431,377 L 433,377 L 434,376 L 435,376 L 436,375 L 438,375 L 439,374 L 440,374 L 441,375 L 442,375 L 444,373 L 445,374 L 446,374 L 449,371 L 450,371 L 452,369 L 453,369 L 455,367 L 456,367 L 457,366 L 458,366 L 462,362 L 463,362 L 478,347 L 478,346 L 481,343 L 481,342 L 482,341 L 482,340 L 483,339 L 483,338 L 484,337 L 484,336 L 485,335 L 485,333 L 486,332 L 486,331 L 487,330 L 487,328 L 488,327 L 488,324 L 489,323 L 489,318 L 490,317 L 490,313 L 491,312 L 491,311 L 494,308 L 494,304 L 493,303 L 493,302 L 492,301 L 492,300 L 491,300 L 487,296 L 486,296 L 485,295 L 484,295 L 483,294 L 479,294 L 477,292 Z" fill="#c80000"/>
<path d="M 592,288 L 590,290 L 591,290 L 592,289 L 593,289 L 593,288 Z" fill="#c80000"/>
<path d="M 551,285 L 550,286 L 550,287 L 551,288 L 550,289 L 551,290 L 552,289 L 552,285 Z" fill="#c80000"/>
<path d="M 619,283 L 618,284 L 618,285 L 620,287 L 621,287 L 621,286 L 622,285 L 622,284 L 621,283 Z" fill="#c80000"/>
<path d="M 557,281 L 557,282 L 558,282 L 558,281 Z" fill="#c80000"/>
<path d="M 662,278 L 663,278 Z" fill="#c80000"/>
<path d="M 635,275 L 634,276 L 633,276 L 629,280 L 630,281 L 630,282 L 629,283 L 629,287 L 631,289 L 631,290 L 633,290 L 634,291 L 634,292 L 635,292 L 636,291 L 637,292 L 639,292 L 640,291 L 641,291 L 642,290 L 644,290 L 644,289 L 645,288 L 645,287 L 646,286 L 646,284 L 645,283 L 645,282 L 646,281 L 646,279 L 645,279 L 644,278 L 644,276 L 643,275 Z" fill="#c80000"/>
<path d="M 505,275 L 505,276 L 501,280 L 500,280 L 499,281 L 497,281 L 495,283 L 495,287 L 496,288 L 497,288 L 499,290 L 500,290 L 504,294 L 504,301 L 505,302 L 504,303 L 504,305 L 505,306 L 505,320 L 504,321 L 504,340 L 502,342 L 502,349 L 507,354 L 508,354 L 512,358 L 513,358 L 515,360 L 516,360 L 519,363 L 521,363 L 522,364 L 527,364 L 528,363 L 529,363 L 530,362 L 531,362 L 533,360 L 535,360 L 543,352 L 544,352 L 547,349 L 548,349 L 550,347 L 551,347 L 553,345 L 554,345 L 555,344 L 556,344 L 557,343 L 557,342 L 575,324 L 576,325 L 577,324 L 577,323 L 576,322 L 577,321 L 577,319 L 578,318 L 578,317 L 580,315 L 580,314 L 583,311 L 583,309 L 585,307 L 585,305 L 587,303 L 587,301 L 586,302 L 585,302 L 584,301 L 585,300 L 585,299 L 587,297 L 587,295 L 589,293 L 589,292 L 588,293 L 587,293 L 587,294 L 584,297 L 583,296 L 583,294 L 584,293 L 584,291 L 585,290 L 585,289 L 587,287 L 587,286 L 590,283 L 589,283 L 589,284 L 586,287 L 585,287 L 584,288 L 584,289 L 583,290 L 583,291 L 577,297 L 576,296 L 576,294 L 575,294 L 575,296 L 576,297 L 574,299 L 573,299 L 563,309 L 562,309 L 555,316 L 554,316 L 550,320 L 549,320 L 545,324 L 544,324 L 540,328 L 539,328 L 537,330 L 536,330 L 533,333 L 532,332 L 532,329 L 531,328 L 532,327 L 532,325 L 531,324 L 531,323 L 532,322 L 532,293 L 533,292 L 533,285 L 531,283 L 531,278 L 530,278 L 530,280 L 529,281 L 527,279 L 526,279 L 525,278 L 520,278 L 519,277 L 515,277 L 514,276 L 506,276 Z" fill="#c80000"/>
<path d="M 561,274 Z" fill="#c80000"/>
<path d="M 590,273 L 589,274 L 589,277 L 590,277 L 592,279 L 592,278 L 594,276 L 591,273 Z" fill="#c80000"/>
<path d="M 609,271 Z" fill="#c80000"/>
<path d="M 627,269 L 626,270 L 627,271 L 628,270 Z" fill="#c80000"/>
<path d="M 543,269 L 543,270 L 544,270 L 544,269 Z" fill="#c80000"/>
<path d="M 646,268 Z" fill="#c80000"/>
<path d="M 509,267 L 509,268 L 510,267 Z" fill="#c80000"/>
<path d="M 585,266 Z" fill="#c80000"/>
<path d="M 519,265 L 519,266 Z" fill="#c80000"/>
<path d="M 567,263 L 565,265 L 566,266 L 566,267 L 567,268 L 569,268 L 569,267 L 570,266 L 570,264 L 569,264 L 568,263 Z" fill="#c80000"/>
<path d="M 528,263 L 528,267 L 529,267 L 529,263 Z" fill="#c80000"/>
<path d="M 568,256 L 569,256 Z" fill="#c80000"/>
<path d="M 473,254 Z" fill="#c80000"/>
<path d="M 609,250 L 609,251 L 610,251 L 610,250 Z" fill="#c80000"/>
<path d="M 566,250 L 565,251 L 565,252 L 566,251 Z" fill="#c80000"/>
<path d="M 562,249 L 562,250 L 563,251 L 563,249 Z" fill="#c80000"/>
<path d="M 567,247 Z" fill="#c80000"/>
<path d="M 529,247 Z" fill="#c80000"/>
<path d="M 490,247 Z" fill="#c80000"/>
<path d="M 495,226 Z" fill="#c80000"/>
<path d="M 585,225 Z" fill="#c80000"/>
<path d="M 588,219 Z" fill="#c80000"/>
<path d="M 556,205 L 556,206 Z" fill="#c80000"/>
<path d="M 580,203 Z" fill="#c80000"/>
<path d="M 552,161 L 551,162 L 549,162 L 548,163 L 546,163 L 545,164 L 541,164 L 540,165 L 537,165 L 536,166 L 534,166 L 533,167 L 530,167 L 529,168 L 527,168 L 526,169 L 524,169 L 523,170 L 521,170 L 520,171 L 517,171 L 516,172 L 513,172 L 512,173 L 511,173 L 510,174 L 507,174 L 506,175 L 503,175 L 502,176 L 500,176 L 499,177 L 496,177 L 495,178 L 492,178 L 491,179 L 488,179 L 487,180 L 485,180 L 484,181 L 480,181 L 479,182 L 475,182 L 474,183 L 471,183 L 470,184 L 466,184 L 465,185 L 464,184 L 456,184 L 455,183 L 449,183 L 448,184 L 448,185 L 447,186 L 447,189 L 445,191 L 444,191 L 443,192 L 443,193 L 445,195 L 445,196 L 444,197 L 445,198 L 445,199 L 446,200 L 446,201 L 450,205 L 451,205 L 452,206 L 453,206 L 455,208 L 455,209 L 457,211 L 458,211 L 461,214 L 461,215 L 462,215 L 464,217 L 465,217 L 466,218 L 467,218 L 468,219 L 476,219 L 477,218 L 482,218 L 484,216 L 484,215 L 492,207 L 492,206 L 494,204 L 495,205 L 495,207 L 493,209 L 495,211 L 496,211 L 500,215 L 500,222 L 499,223 L 499,234 L 498,235 L 498,240 L 497,241 L 497,245 L 496,246 L 496,249 L 495,250 L 495,252 L 494,253 L 494,255 L 493,256 L 493,257 L 491,259 L 491,260 L 490,261 L 490,262 L 488,264 L 488,265 L 486,267 L 486,268 L 484,270 L 484,271 L 476,279 L 478,277 L 479,277 L 480,278 L 481,278 L 483,276 L 484,276 L 485,275 L 486,275 L 487,274 L 488,274 L 492,270 L 493,270 L 499,264 L 500,265 L 501,265 L 506,260 L 506,259 L 510,255 L 511,256 L 511,257 L 510,258 L 510,259 L 509,260 L 510,259 L 510,258 L 513,255 L 513,254 L 516,251 L 516,250 L 517,249 L 517,248 L 518,247 L 518,246 L 520,244 L 520,242 L 521,241 L 521,240 L 522,239 L 522,238 L 523,237 L 523,235 L 524,234 L 524,232 L 525,231 L 525,226 L 526,225 L 526,222 L 527,221 L 527,220 L 528,219 L 528,218 L 529,217 L 529,212 L 530,211 L 534,211 L 535,210 L 537,210 L 538,209 L 540,209 L 541,208 L 542,208 L 543,207 L 545,207 L 546,206 L 548,206 L 549,205 L 551,205 L 554,202 L 556,202 L 557,203 L 558,203 L 559,202 L 560,202 L 561,201 L 562,201 L 563,200 L 565,200 L 566,199 L 569,199 L 570,198 L 571,198 L 572,197 L 573,197 L 574,196 L 575,196 L 580,191 L 580,188 L 581,187 L 581,185 L 582,184 L 581,183 L 581,181 L 580,180 L 580,179 L 569,168 L 569,167 L 563,161 Z" fill="#c80000"/>
</svg>